# Blender 3.3.1
# www.blender.org
mtllib Colors Bowl.mtl
o colorBowl
v -3.718190 -0.951189 -0.000066
v -3.439681 -1.260236 -0.000066
v -3.232208 -1.260236 -1.176487
v -3.493941 -0.951189 -1.271638
v -2.634954 -1.260235 -2.210967
v -4.035624 1.056302 -1.468888
v -4.294605 1.056302 -0.000066
v -2.848325 -0.951189 -2.389998
v -1.719873 -1.260234 -2.978864
v -3.289876 1.056302 -2.760513
v -3.815045 1.174127 -1.388546
v -4.060002 1.174127 -0.000066
v -3.825268 1.056302 -0.000066
v -3.594597 1.056302 -1.308336
v -3.110058 1.174129 -2.609659
v -2.930370 1.056302 -2.458806
v -2.029968 1.174129 -3.515960
v -1.912667 1.056303 -3.312812
v -1.859062 -0.951188 -3.220020
v -0.597319 -1.260234 -3.387388
v -2.147269 1.056303 -3.719238
v -0.705053 1.174129 -3.998271
v -0.664292 1.056303 -3.767207
v -0.645681 -0.951188 -3.661702
v 0.597319 -1.260234 -3.387388
v -0.745813 1.056303 -4.229335
v 0.705053 1.174129 -3.998271
v 0.664293 1.056303 -3.767207
v 0.645682 -0.951188 -3.661702
v 1.719873 -1.260234 -2.978864
v 0.745814 1.056303 -4.229335
v 2.029968 1.174129 -3.515960
v 1.912667 1.056303 -3.312812
v 1.859062 -0.951188 -3.220020
v 2.634955 -1.260235 -2.210967
v 2.147270 1.056303 -3.719238
v 3.110058 1.174129 -2.609659
v 2.930371 1.056302 -2.458806
v 2.848325 -0.951189 -2.389998
v 3.232209 -1.260236 -1.176487
v 3.289876 1.056302 -2.760513
v 3.815046 1.174127 -1.388546
v 3.594598 1.056302 -1.308336
v 3.493941 -0.951189 -1.271638
v 3.439681 -1.260236 0.000065
v 4.035625 1.056302 -1.468888
v 4.060002 1.174127 0.000066
v 3.825269 1.056302 0.000065
v 3.718190 -0.951189 0.000065
v 3.232209 -1.260236 1.176486
v 4.294605 1.056302 0.000065
v 3.815046 1.174127 1.388546
v 3.594598 1.056301 1.308336
v 3.493941 -0.951189 1.271769
v 2.634955 -1.260236 2.210966
v 4.035625 1.056301 1.468888
v 3.110058 1.174127 2.609660
v 2.930371 1.056301 2.458806
v 2.848325 -0.951190 2.389998
v 1.719873 -1.260237 2.978863
v 3.289876 1.056301 2.760513
v 2.029968 1.174126 3.515960
v 1.912667 1.056300 3.312812
v 1.859062 -0.951191 3.220019
v 0.597319 -1.260237 3.387387
v 2.147270 1.056300 3.719238
v 0.705053 1.174126 3.998272
v 0.664293 1.056300 3.767208
v 0.645682 -0.951191 3.661701
v -0.597319 -1.260237 3.387387
v 0.745814 1.056300 4.229335
v -0.705053 1.174126 3.998272
v -0.664292 1.056300 3.767208
v -0.645681 -0.951191 3.661701
v -1.719873 -1.260237 2.978863
v -0.745813 1.056300 4.229335
v -2.029968 1.174126 3.515960
v -1.912667 1.056300 3.312812
v -1.859062 -0.951191 3.220019
v -2.634954 -1.260236 2.210966
v -2.147269 1.056300 3.719238
v -3.110058 1.174127 2.609660
v -2.930370 1.056301 2.458806
v -2.848325 -0.951190 2.389998
v -3.232208 -1.260236 1.176486
v -3.289876 1.056301 2.760513
v -3.815045 1.174127 1.388546
v -3.594597 1.056301 1.308336
v -3.493941 -0.951189 1.271638
v -3.439681 -1.260236 -0.000066
v -3.718190 -0.951189 -0.000066
v -4.294605 1.056302 -0.000066
v -4.035624 1.056301 1.468888
v -4.060002 1.174127 -0.000066
v -3.825268 1.056302 -0.000066
v 1.719873 -1.260234 -2.978864
v -0.000065 -1.260236 0.000065
v 2.634955 -1.260235 -2.210967
v 0.597319 -1.260234 -3.387388
v 3.232209 -1.260236 -1.176487
v -0.597319 -1.260234 -3.387388
v 3.439681 -1.260236 0.000065
v -1.719873 -1.260234 -2.978864
v 3.232209 -1.260236 1.176486
v -2.634954 -1.260235 -2.210967
v 2.634955 -1.260236 2.210966
v -3.232208 -1.260236 -1.176487
v 1.719873 -1.260237 2.978863
v -3.439681 -1.260236 -0.000066
v 0.597319 -1.260237 3.387387
v -3.232208 -1.260236 1.176486
v -0.597319 -1.260237 3.387387
v -2.634954 -1.260236 2.210966
v -1.719873 -1.260237 2.978863
v 2.930371 1.056301 2.458806
v 3.095772 1.504405 1.126814
v 3.594598 1.056301 1.308336
v 2.523683 1.504405 2.117649
v 1.912667 1.056300 3.312812
v 3.294464 1.504405 0.000066
v 3.825269 1.056302 0.000065
v 1.647265 1.504405 2.853174
v 0.664293 1.056300 3.767208
v 3.095772 1.504406 -1.126813
v 3.594598 1.056302 -1.308336
v 0.572024 1.504405 3.244397
v -0.664292 1.056300 3.767208
v 2.523683 1.504406 -2.117649
v 2.930371 1.056302 -2.458806
v -0.572024 1.504405 3.244397
v -1.912667 1.056300 3.312812
v 1.647265 1.504406 -2.853174
v 1.912667 1.056303 -3.312812
v -1.647264 1.504405 2.853174
v -2.930370 1.056301 2.458806
v 0.572024 1.504406 -3.244397
v 0.664293 1.056303 -3.767207
v -2.523682 1.504405 2.117649
v -3.594597 1.056301 1.308336
v -0.572024 1.504406 -3.244397
v -0.664292 1.056303 -3.767207
v -3.095772 1.504405 1.126814
v -3.825268 1.056302 -0.000066
v -1.647264 1.504406 -2.853174
v -1.912667 1.056303 -3.312812
v -3.294463 1.504405 -0.000066
v -3.594597 1.056302 -1.308336
v -2.523682 1.504406 -2.117649
v -2.930370 1.056302 -2.458806
v -3.095772 1.504406 -1.126813
v -0.419860 2.058279 -2.380955
v -1.208859 2.058278 -2.093796
v -1.852116 2.058278 -1.554078
v -2.271910 2.058278 -0.826941
v -2.417783 2.058278 -0.000065
v -2.271910 2.058277 0.826942
v 0.419860 2.058279 -2.380955
v -1.852116 2.058277 1.554079
v 1.208859 2.058278 -2.093796
v -1.208859 2.058277 2.093796
v 1.852116 2.058278 -1.554078
v -0.419860 2.058276 2.380955
v 2.271910 2.058278 -0.826941
v 0.419860 2.058276 2.380955
v 2.417784 2.058278 0.000066
v 1.208859 2.058277 2.093796
v 2.271910 2.058277 0.826942
v 1.852116 2.058277 1.554079
v 1.075961 2.423813 -0.902827
v 1.319869 2.423812 -0.480411
v -0.000065 2.608873 0.000066
v 0.702301 2.423813 -1.216329
v 1.404536 2.423812 0.000066
v 1.319869 2.423812 0.480411
v 0.243843 2.423813 -1.383172
v 1.075961 2.423812 0.902827
v -0.243843 2.423813 -1.383172
v 0.702301 2.423812 1.216330
v -0.702301 2.423813 -1.216329
v 0.243843 2.423812 1.383173
v -1.075961 2.423813 -0.902827
v -0.243843 2.423812 1.383173
v -1.319869 2.423812 -0.480411
v -0.702301 2.423812 1.216330
v -1.404536 2.423812 0.000066
v -1.075961 2.423812 0.902827
v -1.319869 2.423812 0.480411
vn -0.4118 -0.8980 -0.1549
vn -0.4353 -0.8980 -0.0637
vn -0.8807 -0.4736 -0.0000
vn -0.8274 -0.4745 -0.3003
vn -0.3334 -0.8980 -0.2871
vn -0.8275 -0.4745 -0.3003
vn -0.8667 0.3883 -0.3133
vn -0.9216 0.3882 -0.0003
vn -0.8667 0.3882 -0.3133
vn -0.6706 -0.4745 -0.5702
vn -0.3333 -0.8980 -0.2871
vn -0.2157 -0.8980 -0.3834
vn -0.8666 0.3883 -0.3133
vn -0.7019 0.3882 -0.5971
vn -0.7020 0.3882 -0.5971
vn -0.0431 0.9991 -0.0000
vn -0.9216 0.3882 -0.0004
vn -0.0509 0.9987 -0.0000
vn -0.0353 0.9994 -0.0000
vn -0.8666 0.3883 -0.3134
vn -0.0275 0.9996 -0.0000
vn -0.0352 0.9994 -0.0000
vn -0.0274 0.9996 -0.0000
vn -0.4431 -0.4745 -0.7606
vn -0.0745 -0.8980 -0.4336
vn -0.4589 0.3882 -0.7992
vn -0.4588 0.3883 -0.7992
vn -0.7019 0.3883 -0.5971
vn -0.4588 0.3882 -0.7992
vn -0.6706 -0.4744 -0.5703
vn -0.0117 0.9999 -0.0000
vn -0.0118 0.9999 -0.0000
vn -0.1530 -0.4745 -0.8669
vn -0.4432 -0.4745 -0.7606
vn 0.0745 -0.8980 -0.4336
vn -0.1529 -0.4745 -0.8669
vn -0.1608 0.3882 -0.9074
vn -0.1607 0.3882 -0.9074
vn 0.0117 0.9999 -0.0000
vn 0.0118 0.9999 -0.0000
vn 0.1530 -0.4745 -0.8669
vn 0.2157 -0.8980 -0.3834
vn 0.1529 -0.4745 -0.8669
vn 0.1608 0.3882 -0.9074
vn 0.0275 0.9996 -0.0000
vn 0.0274 0.9996 -0.0000
vn 0.4431 -0.4745 -0.7606
vn 0.3334 -0.8980 -0.2871
vn 0.4588 0.3883 -0.7992
vn 0.4589 0.3882 -0.7992
vn 0.4588 0.3882 -0.7992
vn 0.0353 0.9994 -0.0000
vn 0.0431 0.9991 -0.0000
vn 0.6706 -0.4745 -0.5702
vn 0.3333 -0.8980 -0.2871
vn 0.4118 -0.8980 -0.1549
vn 0.7020 0.3882 -0.5971
vn 0.4588 0.3882 -0.7993
vn 0.7019 0.3882 -0.5971
vn 0.0509 0.9987 -0.0000
vn 0.8274 -0.4745 -0.3003
vn 0.4117 -0.8980 -0.1549
vn 0.4353 -0.8980 -0.0637
vn 0.8667 0.3882 -0.3133
vn 0.8666 0.3883 -0.3133
vn 0.8666 0.3882 -0.3134
vn 0.8807 -0.4736 -0.0000
vn 0.8667 0.3883 -0.3133
vn 0.4118 -0.8980 0.1549
vn 0.9216 0.3882 -0.0000
vn 0.8667 0.3882 -0.3134
vn 0.8807 -0.4737 -0.0000
vn 0.8274 -0.4745 0.3003
vn 0.3333 -0.8980 0.2871
vn 0.8667 0.3882 0.3133
vn 0.8667 0.3882 0.3134
vn 0.8275 -0.4745 0.3003
vn 0.8666 0.3883 0.3134
vn 0.6706 -0.4745 0.5702
vn 0.2157 -0.8980 0.3834
vn 0.7020 0.3882 0.5971
vn 0.7019 0.3882 0.5971
vn 0.0352 0.9994 -0.0000
vn 0.4431 -0.4745 0.7606
vn 0.0745 -0.8980 0.4336
vn 0.4589 0.3882 0.7992
vn 0.4588 0.3883 0.7992
vn 0.7019 0.3883 0.5971
vn 0.4588 0.3882 0.7992
vn 0.6706 -0.4745 0.5703
vn 0.1530 -0.4745 0.8669
vn 0.4432 -0.4745 0.7606
vn -0.0745 -0.8980 0.4336
vn 0.1529 -0.4745 0.8669
vn 0.1608 0.3882 0.9074
vn 0.1607 0.3882 0.9074
vn -0.1530 -0.4745 0.8669
vn -0.2157 -0.8980 0.3834
vn -0.1529 -0.4745 0.8669
vn -0.1608 0.3882 0.9074
vn -0.4431 -0.4745 0.7606
vn -0.3334 -0.8980 0.2871
vn -0.4588 0.3883 0.7992
vn -0.4589 0.3882 0.7992
vn -0.4588 0.3882 0.7992
vn -0.6706 -0.4745 0.5702
vn -0.3333 -0.8980 0.2871
vn -0.4118 -0.8980 0.1549
vn -0.7020 0.3882 0.5971
vn -0.4588 0.3882 0.7993
vn -0.7019 0.3882 0.5971
vn -0.8274 -0.4745 0.3003
vn -0.4117 -0.8980 0.1549
vn -0.8667 0.3882 0.3133
vn -0.8667 0.3883 0.3132
vn -0.8667 0.3882 0.3134
vn -0.8666 0.3882 0.3134
vn -0.0039 -1.0000 -0.0000
vn 0.5608 0.8039 0.1981
vn 0.4588 0.8039 0.3784
vn 0.5921 0.8039 -0.0555
vn 0.5922 0.8039 -0.0555
vn 0.2941 0.8039 0.5169
vn 0.5608 0.8039 -0.1981
vn 0.0509 0.9987 0.0001
vn 0.1059 0.8039 0.5852
vn 0.4588 0.8039 -0.3784
vn 0.0510 0.9987 -0.0000
vn 0.1059 0.8039 0.5853
vn -0.1059 0.8039 0.5853
vn -0.1059 0.8039 0.5852
vn 0.2941 0.8039 -0.5169
vn -0.2941 0.8039 0.5169
vn 0.1059 0.8039 -0.5852
vn -0.4588 0.8039 0.3784
vn -0.0510 0.9987 -0.0000
vn -0.1059 0.8039 -0.5853
vn -0.1059 0.8039 -0.5852
vn -0.5608 0.8039 0.1981
vn -0.0509 0.9987 -0.0001
vn -0.2941 0.8039 -0.5169
vn -0.5921 0.8039 -0.0555
vn -0.5921 0.8039 -0.0554
vn -0.4588 0.8039 -0.3784
vn -0.5608 0.8039 -0.1981
vn -0.5922 0.8039 -0.0555
vn -0.0745 0.8902 -0.4494
vn -0.2235 0.8902 -0.3970
vn -0.0745 0.8902 -0.4495
vn -0.3412 0.8902 -0.3019
vn -0.2941 0.8039 -0.5170
vn -0.4196 0.8902 -0.1775
vn -0.5922 0.8039 -0.0554
vn -0.4510 0.8902 -0.0647
vn -0.4196 0.8902 0.1775
vn 0.0745 0.8902 -0.4494
vn 0.0745 0.8902 -0.4495
vn -0.3412 0.8902 0.3019
vn 0.2235 0.8902 -0.3970
vn -0.2235 0.8902 0.3970
vn 0.3412 0.8902 -0.3019
vn -0.0745 0.8902 0.4495
vn -0.0745 0.8902 0.4494
vn 0.4196 0.8902 -0.1775
vn 0.0745 0.8902 0.4494
vn 0.4510 0.8902 -0.0647
vn 0.5922 0.8039 -0.0554
vn 0.0745 0.8902 0.4495
vn 0.2235 0.8902 0.3970
vn 0.4196 0.8902 0.1775
vn 0.3412 0.8902 0.3019
vn 0.3412 0.8902 -0.3020
vn 0.1921 0.9686 -0.1576
vn 0.2314 0.9686 -0.0908
vn -0.0039 1.0000 -0.0003
vn 0.1922 0.9686 -0.1576
vn 0.1922 0.9686 -0.1577
vn 0.1216 0.9686 -0.2168
vn -0.0039 1.0000 -0.0004
vn 0.2471 0.9686 -0.0272
vn 0.2314 0.9686 0.0908
vn 0.0431 0.9686 -0.2448
vn 0.1922 0.9686 0.1576
vn -0.0431 0.9686 -0.2448
vn 0.1216 0.9686 0.2168
vn 0.1921 0.9686 0.1576
vn -0.1216 0.9686 -0.2168
vn 0.0431 0.9686 0.2448
vn -0.1922 0.9686 -0.1576
vn -0.1921 0.9686 -0.1576
vn -0.0431 0.9686 0.2448
vn -0.2314 0.9686 -0.0908
vn -0.1922 0.9686 -0.1577
vn -0.1216 0.9686 0.2168
vn -0.4196 0.8902 -0.1774
vn -0.2471 0.9686 -0.0272
vn -0.2470 0.9686 -0.0272
vn -0.1922 0.9686 0.1576
vn -0.1921 0.9686 0.1576
vn -0.2314 0.9686 0.0908
vn -0.2313 0.9686 0.0908
vn -0.1922 0.9686 0.1577
vt 0.064500 0.983899
vt 0.072068 0.983899
vt 0.072068 0.964036
vt 0.064500 0.964036
vt 0.072068 0.943226
vt 0.043691 0.964036
vt 0.043691 0.983899
vt 0.064500 0.943226
vt 0.072068 0.922417
vt 0.043691 0.943226
vt 0.023827 0.964036
vt 0.023827 0.983899
vt 0.019098 0.983899
vt 0.019098 0.964036
vt 0.023827 0.943226
vt 0.019098 0.943226
vt 0.023827 0.922417
vt 0.019098 0.922417
vt 0.064500 0.922417
vt 0.072068 0.900662
vt 0.043691 0.922417
vt 0.023827 0.900662
vt 0.019098 0.900662
vt 0.064500 0.900662
vt 0.072068 0.879852
vt 0.043691 0.900662
vt 0.023827 0.879852
vt 0.019098 0.879852
vt 0.064500 0.879852
vt 0.072068 0.712431
vt 0.043691 0.879852
vt 0.023827 0.712431
vt 0.019098 0.712431
vt 0.064500 0.712431
vt 0.072068 0.545955
vt 0.043691 0.712431
vt 0.023827 0.545955
vt 0.019098 0.545955
vt 0.064500 0.545955
vt 0.072068 0.524200
vt 0.043691 0.545955
vt 0.023827 0.524200
vt 0.019098 0.524200
vt 0.064500 0.524200
vt 0.072068 0.502445
vt 0.043691 0.524200
vt 0.023827 0.502445
vt 0.019098 0.502445
vt 0.064500 0.502445
vt 0.072068 0.481635
vt 0.043691 0.502445
vt 0.023827 0.481635
vt 0.019098 0.481635
vt 0.064500 0.481635
vt 0.072068 0.459880
vt 0.043691 0.481635
vt 0.023827 0.459880
vt 0.019098 0.459880
vt 0.064500 0.459880
vt 0.072068 0.439070
vt 0.043691 0.459880
vt 0.023827 0.439070
vt 0.019098 0.439070
vt 0.064500 0.439070
vt 0.072068 0.417315
vt 0.043691 0.439070
vt 0.023827 0.417315
vt 0.019098 0.417315
vt 0.064500 0.417315
vt 0.072068 0.249894
vt 0.043691 0.417315
vt 0.023827 0.249894
vt 0.019098 0.249894
vt 0.064500 0.249894
vt 0.072068 0.083418
vt 0.043691 0.249894
vt 0.023827 0.083418
vt 0.019098 0.083418
vt 0.064500 0.083418
vt 0.072068 0.061663
vt 0.043691 0.083418
vt 0.023827 0.061663
vt 0.019098 0.061663
vt 0.064500 0.061663
vt 0.072068 0.040853
vt 0.043691 0.061663
vt 0.023827 0.040853
vt 0.019098 0.040853
vt 0.064500 0.040853
vt 0.072068 0.019098
vt 0.064500 0.019098
vt 0.043691 0.019098
vt 0.043691 0.040853
vt 0.023827 0.019098
vt 0.019098 0.019098
vt 0.928092 0.218679
vt 0.873231 0.124091
vt 0.957415 0.194087
vt 0.892149 0.231922
vt 0.976332 0.160981
vt 0.854313 0.231922
vt 0.982954 0.124091
vt 0.819316 0.218679
vt 0.976332 0.086256
vt 0.789993 0.194087
vt 0.957415 0.054096
vt 0.771076 0.160981
vt 0.928092 0.029503
vt 0.764454 0.124091
vt 0.892149 0.016260
vt 0.771076 0.086256
vt 0.854313 0.016260
vt 0.789993 0.054096
vt 0.819316 0.029503
vt 0.849584 0.277324
vt 0.856205 0.431503
vt 0.924309 0.405964
vt 0.793777 0.323673
vt 0.735132 0.180844
vt 0.877015 0.553522
vt 0.949848 0.553522
vt 0.699188 0.244218
vt 0.594195 0.129766
vt 0.856205 0.675541
vt 0.924309 0.700134
vt 0.581899 0.201654
vt 0.444746 0.129766
vt 0.793777 0.783372
vt 0.849584 0.829720
vt 0.457988 0.201654
vt 0.304755 0.180844
vt 0.699188 0.862826
vt 0.735132 0.925255
vt 0.340698 0.244218
vt 0.190303 0.277324
vt 0.581899 0.905391
vt 0.594195 0.976332
vt 0.246110 0.323673
vt 0.115578 0.405964
vt 0.457988 0.905391
vt 0.444746 0.976332
vt 0.183682 0.431503
vt 0.090039 0.553522
vt 0.340698 0.862826
vt 0.304755 0.925255
vt 0.162872 0.553522
vt 0.115578 0.700134
vt 0.246110 0.783372
vt 0.190303 0.829720
vt 0.183682 0.675541
vt 0.475960 0.800398
vt 0.393668 0.771076
vt 0.326510 0.714323
vt 0.283000 0.638652
vt 0.268811 0.553522
vt 0.283000 0.467447
vt 0.563927 0.800398
vt 0.326510 0.391776
vt 0.646219 0.771076
vt 0.393668 0.335969
vt 0.713377 0.714323
vt 0.475960 0.305701
vt 0.756887 0.638652
vt 0.563927 0.305701
vt 0.771076 0.553522
vt 0.646219 0.335969
vt 0.756887 0.467447
vt 0.713377 0.391776
vt 0.629193 0.644327
vt 0.653786 0.601762
vt 0.519471 0.553522
vt 0.591358 0.676487
vt 0.662299 0.553522
vt 0.653786 0.504336
vt 0.545009 0.693513
vt 0.629193 0.461772
vt 0.494878 0.693513
vt 0.591358 0.430557
vt 0.448529 0.676487
vt 0.545009 0.413532
vt 0.410694 0.644327
vt 0.494878 0.413532
vt 0.386101 0.601762
vt 0.448529 0.430557
vt 0.377588 0.553522
vt 0.410694 0.461772
vt 0.386101 0.504336
s 0
usemtl Material.001
f 3/3/1 2/2/2 1/1/3
f 4/4/4 3/3/1 1/1/3
f 5/5/5 3/3/1 4/4/6
f 6/6/7 4/4/4 1/1/3
f 7/7/8 6/6/9 1/1/3
f 8/8/10 5/5/11 4/4/4
f 9/9/12 5/5/11 8/8/10
f 6/6/13 10/10/14 4/4/6
f 10/10/15 8/8/10 4/4/4
f 11/11/16 6/6/9 7/7/17
f 12/12/18 11/11/16 7/7/17
f 11/11/16 12/12/18 13/13/18
f 14/14/18 11/11/16 13/13/18
f 11/11/16 15/15/19 6/6/20
f 15/15/19 11/11/16 14/14/18
f 15/15/19 10/10/14 6/6/9
f 16/16/16 15/15/19 14/14/18
f 17/17/21 15/15/22 16/16/16
f 15/15/19 17/17/23 10/10/15
f 18/18/23 17/17/23 16/16/16
f 19/19/24 9/9/12 8/8/10
f 20/20/25 9/9/12 19/19/24
f 10/10/14 21/21/26 8/8/10
f 17/17/21 21/21/27 10/10/28
f 21/21/29 19/19/24 8/8/30
f 22/22/31 17/17/21 18/18/23
f 17/17/21 22/22/31 21/21/29
f 23/23/32 22/22/32 18/18/23
f 24/24/33 20/20/25 19/19/34
f 25/25/35 20/20/25 24/24/36
f 21/21/29 26/26/37 19/19/24
f 22/22/32 26/26/37 21/21/29
f 26/26/38 24/24/36 19/19/24
f 27/27/39 22/22/32 23/23/32
f 22/22/32 27/27/40 26/26/37
f 28/28/40 27/27/39 23/23/31
f 29/29/41 25/25/35 24/24/33
f 30/30/42 25/25/35 29/29/43
f 26/26/37 31/31/44 24/24/36
f 27/27/40 31/31/44 26/26/37
f 31/31/44 29/29/43 24/24/33
f 32/32/45 27/27/40 28/28/40
f 27/27/40 32/32/46 31/31/44
f 33/33/45 32/32/46 28/28/40
f 34/34/47 30/30/42 29/29/43
f 35/35/48 30/30/42 34/34/47
f 31/31/44 36/36/49 29/29/43
f 32/32/46 36/36/50 31/31/44
f 36/36/51 34/34/47 29/29/43
f 37/37/52 32/32/46 33/33/46
f 32/32/46 37/37/52 36/36/51
f 38/38/53 37/37/52 33/33/46
f 39/39/54 35/35/55 34/34/47
f 40/40/56 35/35/55 39/39/54
f 36/36/51 41/41/57 34/34/47
f 37/37/52 41/41/57 36/36/58
f 41/41/57 39/39/54 34/34/47
f 42/42/53 37/37/52 38/38/53
f 37/37/52 42/42/53 41/41/59
f 43/43/60 42/42/53 38/38/53
f 44/44/61 40/40/62 39/39/54
f 45/45/63 40/40/56 44/44/61
f 41/41/59 46/46/64 39/39/54
f 42/42/53 46/46/65 41/41/59
f 46/46/64 44/44/61 39/39/54
f 47/47/60 42/42/53 43/43/60
f 42/42/53 47/47/60 46/46/66
f 48/48/60 47/47/60 43/43/60
f 49/49/67 45/45/63 44/44/61
f 44/44/61 46/46/68 49/49/67
f 50/50/69 45/45/63 49/49/67
f 47/47/60 51/51/70 46/46/71
f 46/46/64 51/51/70 49/49/72
f 52/52/53 47/47/60 48/48/60
f 47/47/60 52/52/53 51/51/70
f 53/53/60 52/52/53 48/48/60
f 54/54/73 50/50/69 49/49/67
f 55/55/74 50/50/69 54/54/73
f 51/51/70 56/56/75 49/49/67
f 52/52/53 56/56/75 51/51/70
f 56/56/76 54/54/77 49/49/67
f 57/57/52 52/52/53 53/53/60
f 52/52/53 57/57/52 56/56/78
f 58/58/53 57/57/52 53/53/60
f 59/59/79 55/55/74 54/54/77
f 60/60/80 55/55/74 59/59/79
f 56/56/75 61/61/81 54/54/73
f 57/57/52 61/61/82 56/56/75
f 61/61/81 59/59/79 54/54/73
f 62/62/45 57/57/83 58/58/53
f 57/57/52 62/62/46 61/61/81
f 63/63/46 62/62/46 58/58/53
f 64/64/84 60/60/80 59/59/79
f 65/65/85 60/60/80 64/64/84
f 61/61/82 66/66/86 59/59/79
f 62/62/45 66/66/87 61/61/88
f 66/66/89 64/64/84 59/59/90
f 67/67/39 62/62/45 63/63/46
f 62/62/46 67/67/39 66/66/89
f 68/68/40 67/67/40 63/63/46
f 69/69/91 65/65/85 64/64/92
f 70/70/93 65/65/85 69/69/94
f 66/66/89 71/71/95 64/64/84
f 67/67/40 71/71/95 66/66/89
f 71/71/96 69/69/94 64/64/84
f 72/72/31 67/67/40 68/68/40
f 67/67/40 72/72/32 71/71/95
f 73/73/32 72/72/31 68/68/39
f 74/74/97 70/70/93 69/69/91
f 75/75/98 70/70/93 74/74/99
f 71/71/95 76/76/100 69/69/94
f 72/72/32 76/76/100 71/71/95
f 76/76/100 74/74/99 69/69/94
f 77/77/21 72/72/32 73/73/32
f 72/72/32 77/77/23 76/76/100
f 78/78/21 77/77/23 73/73/32
f 79/79/101 75/75/98 74/74/99
f 80/80/102 75/75/98 79/79/101
f 76/76/100 81/81/103 74/74/99
f 77/77/23 81/81/104 76/76/100
f 81/81/105 79/79/101 74/74/99
f 82/82/19 77/77/23 78/78/23
f 77/77/23 82/82/19 81/81/105
f 83/83/16 82/82/19 78/78/23
f 84/84/106 80/80/107 79/79/101
f 85/85/108 80/80/107 84/84/106
f 81/81/105 86/86/109 79/79/101
f 82/82/19 86/86/109 81/81/110
f 86/86/109 84/84/106 79/79/101
f 87/87/16 82/82/19 83/83/16
f 82/82/19 87/87/16 86/86/111
f 88/88/18 87/87/16 83/83/16
f 89/89/112 85/85/113 84/84/106
f 90/90/2 85/85/108 89/89/112
f 91/91/3 90/90/2 89/89/112
f 92/92/17 91/91/3 89/89/112
f 86/86/111 93/93/114 84/84/106
f 93/93/114 89/89/112 84/84/106
f 93/93/114 92/92/17 89/89/112
f 87/87/16 93/93/115 86/86/111
f 94/94/18 92/92/8 93/93/116
f 87/87/16 94/94/18 93/93/117
f 94/94/18 87/87/16 88/88/18
f 95/95/18 94/94/18 88/88/18
f 98/98/55 97/97/118 96/96/42
f 96/96/42 97/97/118 99/99/35
f 100/100/56 97/97/118 98/98/55
f 99/99/35 97/97/118 101/101/25
f 102/102/63 97/97/118 100/100/56
f 101/101/25 97/97/118 103/103/12
f 104/104/69 97/97/118 102/102/63
f 103/103/12 97/97/118 105/105/11
f 106/106/74 97/97/118 104/104/69
f 105/105/11 97/97/118 107/107/1
f 108/108/80 97/97/118 106/106/74
f 107/107/1 97/97/118 109/109/2
f 110/110/85 97/97/118 108/108/80
f 109/109/2 97/97/118 111/111/108
f 112/112/93 97/97/118 110/110/85
f 111/111/108 97/97/118 113/113/107
f 114/114/98 97/97/118 112/112/93
f 113/113/107 97/97/118 114/114/98
f 117/117/60 116/116/119 115/115/53
f 116/116/119 118/118/120 115/115/53
f 115/115/53 118/118/120 119/119/45
f 120/120/121 116/116/119 117/117/60
f 121/121/60 120/120/122 117/117/60
f 118/118/120 122/122/123 119/119/46
f 119/119/45 122/122/123 123/123/39
f 124/124/124 120/120/121 121/121/60
f 125/125/60 124/124/124 121/121/125
f 122/122/123 126/126/126 123/123/40
f 123/123/40 126/126/126 127/127/32
f 128/128/127 124/124/124 125/125/60
f 129/129/53 128/128/127 125/125/128
f 126/126/129 130/130/130 127/127/32
f 127/127/31 130/130/131 131/131/21
f 132/132/132 128/128/127 129/129/53
f 133/133/46 132/132/132 129/129/53
f 130/130/131 134/134/133 131/131/23
f 131/131/23 134/134/133 135/135/16
f 136/136/134 132/132/132 133/133/46
f 137/137/40 136/136/134 133/133/45
f 134/134/133 138/138/135 135/135/16
f 135/135/16 138/138/135 139/139/136
f 140/140/137 136/136/134 137/137/40
f 141/141/32 140/140/138 137/137/40
f 138/138/135 142/142/139 139/139/18
f 139/139/18 142/142/139 143/143/140
f 144/144/141 140/140/138 141/141/32
f 145/145/21 144/144/141 141/141/31
f 142/142/139 146/146/142 143/143/18
f 143/143/18 146/146/143 147/147/18
f 148/148/144 144/144/141 145/145/23
f 149/149/16 148/148/144 145/145/21
f 147/147/18 150/150/145 149/149/16
f 146/146/146 150/150/145 147/147/18
f 150/150/145 148/148/144 149/149/16
f 136/136/134 140/140/138 151/151/147
f 140/140/138 144/144/141 152/152/148
f 151/151/149 140/140/137 152/152/148
f 144/144/141 148/148/144 153/153/150
f 152/152/148 144/144/151 153/153/150
f 148/148/144 150/150/145 154/154/152
f 153/153/150 148/148/144 154/154/152
f 150/150/145 146/146/153 155/155/154
f 154/154/152 150/150/145 155/155/154
f 146/146/143 142/142/139 156/156/155
f 155/155/154 146/146/146 156/156/155
f 157/157/156 136/136/134 151/151/147
f 132/132/132 136/136/134 157/157/157
f 156/156/155 142/142/139 158/158/158
f 142/142/139 138/138/135 158/158/158
f 159/159/159 132/132/132 157/157/157
f 128/128/127 132/132/132 159/159/159
f 158/158/158 138/138/135 160/160/160
f 138/138/135 134/134/133 160/160/160
f 161/161/161 128/128/127 159/159/159
f 124/124/124 128/128/127 161/161/161
f 160/160/160 134/134/133 162/162/162
f 134/134/133 130/130/131 162/162/163
f 163/163/164 124/124/124 161/161/161
f 120/120/122 124/124/124 163/163/164
f 162/162/163 130/130/131 164/164/165
f 130/130/131 126/126/126 164/164/165
f 165/165/166 120/120/167 163/163/164
f 116/116/119 120/120/167 165/165/166
f 164/164/168 126/126/129 166/166/169
f 126/126/126 122/122/123 166/166/169
f 167/167/170 116/116/119 165/165/166
f 118/118/120 116/116/119 167/167/170
f 122/122/123 118/118/120 168/168/171
f 166/166/169 122/122/123 168/168/171
f 168/168/171 118/118/120 167/167/170
f 163/163/164 161/161/172 169/169/173
f 165/165/166 163/163/164 170/170/174
f 170/170/174 163/163/164 169/169/173
f 171/171/175 170/170/174 169/169/176
f 171/171/175 169/169/177 172/172/178
f 169/169/176 161/161/161 172/172/178
f 171/171/179 173/173/180 170/170/174
f 173/173/180 165/165/166 170/170/174
f 167/167/170 165/165/166 173/173/180
f 161/161/161 159/159/159 172/172/178
f 174/174/181 167/167/170 173/173/180
f 168/168/171 167/167/170 174/174/181
f 171/171/175 174/174/181 173/173/180
f 172/172/178 159/159/159 175/175/182
f 171/171/175 172/172/178 175/175/182
f 159/159/159 157/157/156 175/175/182
f 176/176/183 168/168/171 174/174/181
f 171/171/179 176/176/183 174/174/181
f 166/166/169 168/168/171 176/176/183
f 175/175/182 157/157/157 177/177/184
f 171/171/179 175/175/182 177/177/184
f 157/157/157 151/151/149 177/177/184
f 178/178/185 166/166/169 176/176/186
f 171/171/175 178/178/185 176/176/186
f 164/164/168 166/166/169 178/178/185
f 171/171/175 177/177/184 179/179/187
f 177/177/184 151/151/147 179/179/187
f 171/171/175 180/180/188 178/178/185
f 180/180/188 164/164/165 178/178/185
f 171/171/175 179/179/187 181/181/189
f 151/151/149 152/152/148 179/179/187
f 179/179/187 152/152/148 181/181/190
f 162/162/162 164/164/168 180/180/188
f 152/152/148 153/153/150 181/181/189
f 182/182/191 162/162/162 180/180/188
f 171/171/175 182/182/191 180/180/188
f 160/160/160 162/162/163 182/182/191
f 181/181/189 153/153/150 183/183/192
f 171/171/179 181/181/193 183/183/192
f 153/153/150 154/154/152 183/183/192
f 184/184/194 160/160/160 182/182/191
f 171/171/179 184/184/194 182/182/191
f 158/158/158 160/160/160 184/184/194
f 183/183/192 154/154/195 185/185/196
f 171/171/175 183/183/192 185/185/197
f 154/154/152 155/155/154 185/185/197
f 186/186/198 158/158/158 184/184/194
f 171/171/175 186/186/199 184/184/194
f 156/156/155 158/158/158 186/186/199
f 171/171/175 185/185/196 187/187/200
f 185/185/196 155/155/154 187/187/200
f 171/171/175 187/187/201 186/186/202
f 155/155/154 156/156/155 187/187/200
f 187/187/200 156/156/155 186/186/199
