# Blender 3.3.1
# www.blender.org
mtllib Popper.mtl
o Popper
v 0.650391 -5.784375 -0.375487
v 0.535959 -6.092521 -0.309387
v 0.618870 -6.092521 -0.000095
v 0.750878 -5.784375 -0.000095
v 1.275280 -2.823078 -0.736359
v 0.535959 -6.092521 0.309388
v 1.472623 -2.823079 0.000096
v 1.882402 0.138409 -1.086724
v 0.650391 -5.784375 0.375488
v 0.309386 -6.092521 0.535961
v 2.173546 0.138409 0.000097
v 2.349875 3.099897 -1.356662
v 0.375486 -5.784375 0.650393
v -0.000097 -6.092521 0.618872
v 1.275280 -2.823079 0.736361
v 2.713422 3.099896 0.000097
v 2.556388 6.061194 -1.475870
v 0.000094 -5.784375 0.750879
v -0.309389 -6.092521 0.535961
v 0.736359 -2.823079 1.275282
v 1.882402 0.138409 1.086727
v -0.375489 -5.784375 0.650393
v -0.535962 -6.092521 0.309388
v -0.000097 -2.823079 1.472626
v 1.086724 0.138409 1.882405
v 2.349875 3.099896 1.356666
v 2.951839 6.061193 0.000098
v -0.650394 -5.784375 0.375488
v -0.618873 -6.092521 -0.000095
v -0.736362 -2.823079 1.275282
v -0.000097 0.138409 2.173549
v 1.356663 3.099896 2.349878
v -0.750880 -5.784375 -0.000095
v -0.535962 -6.092521 -0.309387
v -1.275283 -2.823079 0.736361
v -1.086727 0.138409 1.882405
v -0.650394 -5.784375 -0.375487
v -0.309389 -6.092521 -0.535960
v -1.472626 -2.823079 -0.000094
v -0.375489 -5.784375 -0.650392
v 0.000094 -6.092521 -0.618871
v 2.556388 6.061193 1.475875
v -0.000097 3.099896 2.713425
v -1.882405 0.138409 1.086727
v -1.275283 -2.823078 -0.736359
v -0.000097 -5.784566 -0.750879
v 0.309386 -6.092521 -0.535960
v 1.475871 6.061193 2.556392
v -1.356665 3.099896 2.349878
v -2.173549 0.138409 -0.000094
v -0.736362 -2.823078 -1.275280
v 0.375486 -5.784375 -0.650392
v 0.535959 -6.092521 -0.309387
v 0.650391 -5.784375 -0.375487
v -0.000097 -2.823078 -1.472624
v 0.736359 -2.823078 -1.275280
v 1.275280 -2.823078 -0.736359
v -1.882405 0.138409 -1.086724
v -2.349877 3.099896 1.356666
v -1.086727 0.138409 -1.882402
v 1.086724 0.138409 -1.882402
v 1.882402 0.138409 -1.086724
v 0.000094 0.138409 -2.173546
v -2.713425 3.099896 0.000097
v 1.356663 3.099897 -2.349874
v 2.349875 3.099897 -1.356662
v -2.349877 3.099897 -1.356662
v -0.000097 3.099897 -2.713422
v -1.356665 3.099897 -2.349874
v 1.475871 6.061194 -2.556387
v 2.556388 6.061194 -1.475870
v 2.321410 6.259874 -1.340232
v 0.000094 6.061194 -2.951838
v -1.475874 6.061194 -2.556387
v -2.556391 6.061194 -1.475870
v -2.951841 6.061193 -0.000093
v 1.340233 6.259875 -2.321409
v 0.000094 6.259875 -2.680372
v 1.236690 6.061194 -2.142023
v 2.142024 6.061193 -1.236689
v -0.000097 6.061194 -2.473285
v -1.236693 6.061194 -2.142023
v -1.340236 6.259875 -2.321409
v -2.142027 6.061193 -1.236689
v -2.321413 6.259874 -1.340232
v -2.473289 6.061193 0.000098
v -2.680375 6.259874 -0.000093
v -2.142027 6.061193 1.236694
v -2.556391 6.061193 1.475875
v -2.321413 6.259874 1.340237
v -1.236693 6.061193 2.142028
v -1.475874 6.061193 2.556392
v -1.340236 6.259874 2.321414
v -0.000097 6.061193 2.473289
v -0.000097 6.061193 2.951842
v -0.000097 6.259874 2.680376
v 1.236690 6.061193 2.142028
v 1.340233 6.259874 2.321414
v 2.142024 6.061193 1.236694
v 2.321410 6.259874 1.340237
v 2.473286 6.061193 -0.000093
v 2.680372 6.259874 -0.000093
v 2.142024 6.061193 -1.236689
v 2.321410 6.259874 -1.340232
v 0.535959 -6.092521 -0.309387
v 0.000094 -6.259871 -0.000095
v 0.618870 -6.092521 -0.000095
v 0.309386 -6.092521 -0.535960
v 0.535959 -6.092521 0.309388
v 0.000094 -6.092521 -0.618871
v 0.309386 -6.092521 0.535961
v -0.309389 -6.092521 -0.535960
v -0.000097 -6.092521 0.618872
v -0.535962 -6.092521 -0.309387
v -0.309389 -6.092521 0.535961
v -0.618873 -6.092521 -0.000095
v -0.535962 -6.092521 0.309388
v 2.473286 6.061193 -0.000093
v 2.018995 4.299049 0.000097
v 1.748484 4.299049 -1.009544
v 2.142024 6.061193 -1.236689
v 2.142024 6.061193 1.236694
v 1.009545 4.299050 -1.748483
v 1.236690 6.061194 -2.142023
v 1.748484 4.299049 1.009548
v 1.236690 6.061193 2.142028
v 0.000094 4.299050 -2.018995
v -0.000097 6.061194 -2.473285
v 1.009545 4.299049 1.748487
v -0.000097 6.061193 2.473289
v -1.009547 4.299050 -1.748483
v -1.236693 6.061194 -2.142023
v 0.000094 4.299049 2.018999
v -1.236693 6.061193 2.142028
v -1.748487 4.299049 -1.009544
v -2.142027 6.061193 -1.236689
v -1.009547 4.299049 1.748487
v -2.142027 6.061193 1.236694
v -2.018998 4.299049 -0.000093
v -2.473289 6.061193 0.000098
v -1.748487 4.299049 1.009548
v -0.709234 2.537096 -1.228284
v -1.228287 2.537096 -0.709231
v -1.418371 2.537096 -0.000094
v -1.228287 2.537096 0.709234
v -0.709234 2.537096 1.228288
v -0.000097 2.537096 1.418371
v 0.000094 2.537096 -1.418368
v 0.709231 2.537096 1.228288
v 0.709231 2.537096 -1.228284
v 1.228284 2.537096 0.709234
v 1.228284 2.537096 -0.709231
v 1.418368 2.537096 -0.000094
v -0.363453 0.774951 0.629380
v -0.000097 0.774951 0.726810
v 0.363451 0.774951 0.629380
v 0.629377 0.774951 0.363454
v -0.000097 -0.987193 -0.000094
v -0.629380 0.774951 0.363454
v 0.726807 0.774951 -0.000094
v 0.629377 0.774952 -0.363450
v -0.726810 0.774951 -0.000094
v 0.363451 0.774952 -0.629377
v -0.629380 0.774952 -0.363450
v -0.000097 0.774952 -0.726807
v -0.363453 0.774952 -0.629377
vn 0.7569 -0.6471 -0.0921
vn 0.6549 -0.6471 -0.3904
vn 0.8274 -0.3098 -0.4684
vn 0.9510 -0.3092 -0.0000
vn 0.7569 -0.6470 -0.0921
vn 0.8431 -0.2314 -0.4854
vn 0.6549 -0.6471 0.3904
vn 0.9686 -0.2314 -0.0908
vn 0.8510 -0.2000 -0.4856
vn 0.8274 -0.3098 0.4684
vn 0.8275 -0.3098 0.4683
vn 0.3804 -0.6471 0.6608
vn 0.8510 -0.2000 -0.4857
vn 0.9765 -0.2000 -0.0808
vn 0.8588 -0.1294 -0.4957
vn 0.9765 -0.2000 -0.0807
vn 0.4745 -0.3098 0.8239
vn 0.3804 -0.6470 0.6608
vn -0.0039 -0.6470 0.7624
vn 0.8431 -0.2314 0.4854
vn 0.9916 -0.1293 -0.0000
vn 0.9916 -0.1294 -0.0000
vn 0.8274 0.2863 -0.4831
vn -0.0039 -0.3098 0.9508
vn -0.0040 -0.6470 0.7624
vn -0.3804 -0.6471 0.6608
vn -0.0039 -0.6471 0.7624
vn 0.4824 -0.2314 0.8449
vn 0.8510 -0.2000 0.4856
vn 0.4823 -0.2314 0.8449
vn -0.4745 -0.3098 0.8239
vn -0.3804 -0.6470 0.6608
vn -0.6549 -0.6470 0.3904
vn -0.0039 -0.2314 0.9729
vn 0.4902 -0.2000 0.8484
vn 0.8588 -0.1294 0.4957
vn 0.9584 0.2856 -0.0000
vn 0.9584 0.2855 -0.0000
vn -0.8274 -0.3098 0.4684
vn -0.7568 -0.6471 -0.0921
vn -0.6549 -0.6471 0.3904
vn -0.4823 -0.2314 0.8449
vn -0.4824 -0.2314 0.8449
vn -0.8275 -0.3098 0.4683
vn -0.0039 -0.2000 0.9798
vn 0.4980 -0.1294 0.8575
vn 0.4980 -0.1294 0.8574
vn -0.9510 -0.3092 -0.0000
vn -0.7568 -0.6471 -0.0922
vn -0.8274 -0.3098 0.4683
vn -0.6549 -0.6471 -0.3904
vn -0.7569 -0.6470 -0.0922
vn -0.8431 -0.2314 0.4854
vn -0.4902 -0.2000 0.8483
vn -0.4902 -0.2000 0.8484
vn -0.8274 -0.3098 -0.4684
vn -0.3804 -0.6471 -0.6608
vn -0.9686 -0.2314 -0.0908
vn -0.8274 -0.3098 -0.4683
vn -0.4745 -0.3098 -0.8239
vn -0.3804 -0.6470 -0.6608
vn -0.0039 -0.6471 -0.7624
vn 0.8274 0.2863 0.4831
vn -0.0039 -0.1294 0.9916
vn -0.8510 -0.2000 0.4856
vn -0.8431 -0.2314 -0.4854
vn -0.8275 -0.3098 -0.4683
vn -0.0039 -0.3098 -0.9508
vn 0.3804 -0.6471 -0.6608
vn -0.0039 -0.6470 -0.7624
vn 0.4824 0.2863 0.8279
vn 0.4823 0.2863 0.8279
vn -0.4980 -0.1294 0.8574
vn -0.4980 -0.1294 0.8575
vn -0.8510 -0.2000 0.4857
vn -0.9765 -0.2000 -0.0808
vn -0.4824 -0.2314 -0.8449
vn -0.4823 -0.2314 -0.8449
vn 0.4745 -0.3098 -0.8239
vn 0.3804 -0.6470 -0.6608
vn 0.6549 -0.6470 -0.3904
vn -0.0039 -0.2314 -0.9729
vn 0.4824 -0.2314 -0.8449
vn 0.8275 -0.3098 -0.4683
vn 0.4823 -0.2314 -0.8449
vn -0.8510 -0.2000 -0.4856
vn -0.8588 -0.1294 0.4957
vn -0.8588 -0.1294 0.4956
vn -0.4902 -0.2000 -0.8483
vn -0.4902 -0.2000 -0.8484
vn 0.4902 -0.2000 -0.8484
vn -0.0039 -0.2000 -0.9798
vn 0.4902 -0.2000 -0.8483
vn -0.9765 -0.2000 -0.0807
vn -0.9916 -0.1293 -0.0000
vn 0.4980 -0.1294 -0.8575
vn 0.8588 -0.1294 -0.4956
vn -0.8588 -0.1294 -0.4957
vn -0.0039 -0.1294 -0.9916
vn 0.4981 -0.1294 -0.8574
vn -0.4980 -0.1294 -0.8574
vn -0.4980 -0.1294 -0.8575
vn 0.4824 0.2863 -0.8279
vn 0.8275 0.2863 -0.4831
vn 0.4823 0.2863 -0.8279
vn 0.0275 0.9996 -0.0000
vn 0.4980 -0.1294 -0.8574
vn -0.0039 0.2863 -0.9581
vn -0.4824 0.2862 -0.8279
vn -0.4823 0.2863 -0.8279
vn -0.8274 0.2863 -0.4831
vn -0.4824 0.2863 -0.8279
vn -0.9916 -0.1294 -0.0000
vn -0.9584 0.2855 -0.0000
vn 0.0196 0.9998 -0.0000
vn -0.0039 1.0000 -0.0004
vn -0.0039 1.0000 -0.0003
vn 0.0274 0.9996 -0.0000
vn -0.4353 0.4980 0.7500
vn -0.7490 0.4980 0.4370
vn -0.0040 0.4980 0.8671
vn -0.0039 0.4980 0.8671
vn -0.0039 0.4980 0.8672
vn -0.0040 1.0000 -0.0004
vn 0.4353 0.4981 0.7500
vn -0.0196 0.9998 -0.0000
vn -0.0040 1.0000 -0.0003
vn 0.4353 0.4980 0.7500
vn -0.8275 0.2863 -0.4831
vn 0.7490 0.4980 0.4370
vn -0.0275 0.9996 -0.0000
vn -0.0274 0.9996 -0.0000
vn -0.9584 0.2855 -0.0001
vn 0.7490 0.4980 0.4369
vn 0.8667 0.4980 -0.0293
vn -0.0353 0.9994 -0.0000
vn 0.8667 0.4981 -0.0293
vn 0.7490 0.4980 -0.4370
vn -0.8274 0.2863 0.4831
vn -0.8274 0.2862 0.4831
vn -0.8275 0.2863 0.4831
vn 0.4353 0.4980 -0.7500
vn -0.4823 0.2863 0.8279
vn -0.4824 0.2863 0.8279
vn -0.0039 0.4980 -0.8672
vn -0.0039 0.2863 0.9581
vn -0.0039 0.4981 -0.8671
vn -0.0040 0.2863 0.9581
vn -0.0039 0.4980 -0.8671
vn -0.4353 0.4980 -0.7500
vn 0.8275 0.2863 0.4831
vn -0.4353 0.4981 -0.7500
vn -0.7490 0.4980 -0.4370
vn 0.9584 0.2855 0.0001
vn -0.7490 0.4980 -0.4369
vn -0.8667 0.4980 -0.0294
vn 0.0353 0.9994 -0.0000
vn 0.0353 0.9994 -0.0001
vn -0.8667 0.4980 -0.0293
vn -0.0039 -1.0000 -0.0000
vn 0.7569 -0.6471 -0.0922
vn 0.3804 -0.6471 -0.6607
vn -0.7569 -0.6470 -0.0921
vn -0.7569 -0.6471 -0.0921
vn -0.9584 0.2856 -0.0000
vn -0.8666 0.4981 -0.0293
vn -0.7490 0.4981 -0.4370
vn -0.0039 0.4981 0.8671
vn 0.7490 0.4981 0.4370
vn 0.4666 0.3412 0.8160
vn 0.8118 0.3412 0.4740
vn 0.4667 0.3412 0.8160
vn 0.9372 0.3412 -0.0719
vn 0.9373 0.3412 -0.0719
vn 0.8118 0.3412 -0.4740
vn 0.4667 0.3412 -0.8160
vn -0.0039 0.3412 -0.9400
vn -0.0039 0.3412 0.9400
vn -0.4666 0.3412 -0.8160
vn -0.4667 0.3412 -0.8160
vn -0.4667 0.3412 0.8160
vn -0.8118 0.3412 -0.4740
vn -0.8118 0.3412 0.4740
vn -0.9372 0.3412 -0.0719
vn 0.4664 0.3442 -0.8149
vn 0.4667 0.3726 -0.8021
vn -0.0036 0.3441 -0.9389
vn -0.0039 0.3725 -0.9280
vn 0.4667 0.3725 -0.8021
vn -0.4660 0.3435 -0.8154
vn -0.4666 0.3726 -0.8021
vn -0.4667 0.3726 -0.8021
vn -0.8109 0.3434 -0.4738
vn -0.8039 0.3725 -0.4636
vn -0.4666 0.3725 -0.8022
vn -0.4667 0.3725 -0.8021
vn -0.8039 0.3726 -0.4636
vn 0.8039 0.3725 -0.4636
vn 0.4666 0.3725 -0.8022
vn -0.9282 0.3721 -0.0000
vn -0.9373 0.3412 -0.0719
vn 0.8110 0.3442 -0.4731
vn -0.8039 0.3725 0.4636
vn -0.9282 0.3720 -0.0000
vn -0.8110 0.3442 0.4731
vn 0.9282 0.3721 -0.0000
vn 0.8039 0.3726 -0.4636
vn 0.8117 0.3412 -0.4740
vn -0.4666 0.3725 0.8022
vn -0.4667 0.3726 0.8021
vn -0.4664 0.3442 0.8149
vn 0.8039 0.3725 0.4636
vn 0.8039 0.3726 0.4636
vn 0.8109 0.3434 0.4737
vn -0.0039 0.3725 0.9280
vn -0.4667 0.3725 0.8021
vn -0.4667 0.3725 0.8022
vn -0.0042 0.3434 0.9392
vn 0.4666 0.3725 0.8022
vn 0.4667 0.3725 0.8021
vn -0.0039 0.3726 0.9280
vn 0.4667 0.3726 0.8021
vn 0.4660 0.3435 0.8154
vn 0.4666 0.3726 0.8021
vt 0.586066 0.040848
vt 0.586066 0.016237
vt 0.539685 0.016237
vt 0.539685 0.040848
vt 0.586066 0.272755
vt 0.493303 0.016237
vt 0.539685 0.272755
vt 0.586066 0.505609
vt 0.493303 0.040848
vt 0.446922 0.016237
vt 0.539685 0.505609
vt 0.586066 0.737516
vt 0.446922 0.040848
vt 0.400540 0.016237
vt 0.493303 0.272755
vt 0.539685 0.737516
vt 0.586066 0.970370
vt 0.400540 0.040848
vt 0.354159 0.016237
vt 0.446922 0.272755
vt 0.493303 0.505609
vt 0.354159 0.040848
vt 0.307778 0.016237
vt 0.400540 0.272755
vt 0.446922 0.505609
vt 0.493303 0.737516
vt 0.539685 0.970370
vt 0.307778 0.040848
vt 0.260450 0.016237
vt 0.354159 0.272755
vt 0.400540 0.505609
vt 0.446922 0.737516
vt 0.260450 0.040848
vt 0.214068 0.016237
vt 0.307778 0.272755
vt 0.354159 0.505609
vt 0.214068 0.040848
vt 0.167687 0.016237
vt 0.260450 0.272755
vt 0.167687 0.040848
vt 0.121305 0.016237
vt 0.493303 0.970370
vt 0.400540 0.737516
vt 0.307778 0.505609
vt 0.214068 0.272755
vt 0.121305 0.040848
vt 0.074924 0.016237
vt 0.446922 0.970370
vt 0.354159 0.737516
vt 0.260450 0.505609
vt 0.167687 0.272755
vt 0.074924 0.040848
vt 0.028542 0.016237
vt 0.028542 0.040848
vt 0.121305 0.272755
vt 0.074924 0.272755
vt 0.028542 0.272755
vt 0.214068 0.505609
vt 0.307778 0.737516
vt 0.167687 0.505609
vt 0.074924 0.505609
vt 0.028542 0.505609
vt 0.121305 0.505609
vt 0.260450 0.737516
vt 0.074924 0.737516
vt 0.028542 0.737516
vt 0.214068 0.737516
vt 0.121305 0.737516
vt 0.167687 0.737516
vt 0.074924 0.970370
vt 0.028542 0.970370
vt 0.028542 0.970370
vt 0.121305 0.970370
vt 0.167687 0.970370
vt 0.214068 0.970370
vt 0.260450 0.970370
vt 0.074924 0.970370
vt 0.121305 0.970370
vt 0.074924 0.970370
vt 0.028542 0.970370
vt 0.121305 0.970370
vt 0.167687 0.970370
vt 0.167687 0.970370
vt 0.214068 0.970370
vt 0.214068 0.970370
vt 0.260450 0.970370
vt 0.260450 0.970370
vt 0.307778 0.970370
vt 0.307778 0.970370
vt 0.307778 0.970370
vt 0.354159 0.970370
vt 0.354159 0.970370
vt 0.354159 0.970370
vt 0.400540 0.970370
vt 0.400540 0.970370
vt 0.400540 0.970370
vt 0.446922 0.970370
vt 0.446922 0.970370
vt 0.493303 0.970370
vt 0.493303 0.970370
vt 0.539685 0.970370
vt 0.539685 0.970370
vt 0.586066 0.970370
vt 0.586066 0.970370
vt 0.956171 0.119412
vt 0.796203 0.212175
vt 0.981728 0.212175
vt 0.888965 0.052206
vt 0.956171 0.303991
vt 0.796203 0.027596
vt 0.888965 0.372144
vt 0.704386 0.052206
vt 0.796203 0.396754
vt 0.636234 0.119412
vt 0.704386 0.372144
vt 0.611623 0.212175
vt 0.636234 0.303991
vt 0.984568 0.761180
vt 0.938187 0.761180
vt 0.920202 0.830279
vt 0.959957 0.853943
vt 0.959957 0.669363
vt 0.869088 0.881393
vt 0.892752 0.921148
vt 0.920202 0.692081
vt 0.892752 0.601211
vt 0.799989 0.899378
vt 0.799989 0.945759
vt 0.869088 0.640967
vt 0.799989 0.576601
vt 0.730890 0.881393
vt 0.708172 0.921148
vt 0.799989 0.622982
vt 0.708172 0.601211
vt 0.679776 0.830279
vt 0.640020 0.853943
vt 0.730890 0.640967
vt 0.640020 0.669363
vt 0.661791 0.761180
vt 0.615410 0.761180
vt 0.679776 0.692081
vt 0.753607 0.841637
vt 0.720478 0.807561
vt 0.708172 0.761180
vt 0.720478 0.714798
vt 0.753607 0.681669
vt 0.799989 0.669363
vt 0.799989 0.853943
vt 0.846370 0.681669
vt 0.846370 0.841637
vt 0.879500 0.714798
vt 0.879500 0.807561
vt 0.892752 0.761180
vt 0.777271 0.721424
vt 0.799989 0.714798
vt 0.822706 0.721424
vt 0.839744 0.738462
vt 0.799989 0.761180
vt 0.760233 0.738462
vt 0.846370 0.761180
vt 0.839744 0.783897
vt 0.753607 0.761180
vt 0.822706 0.800935
vt 0.760233 0.783897
vt 0.799989 0.807561
vt 0.777271 0.800935
s 0
usemtl Material.001
f 3/3/1 2/2/2 1/1/3
f 4/4/4 3/3/5 1/1/3
f 1/1/3 5/5/6 4/4/4
f 6/6/7 3/3/1 4/4/4
f 5/5/6 7/7/8 4/4/4
f 5/5/6 8/8/9 7/7/8
f 9/9/10 6/6/7 4/4/4
f 4/4/4 7/7/8 9/9/11
f 10/10/12 6/6/7 9/9/10
f 8/8/13 11/11/14 7/7/8
f 8/8/9 12/12/15 11/11/16
f 13/13/17 10/10/18 9/9/10
f 14/14/19 10/10/18 13/13/17
f 7/7/8 15/15/20 9/9/11
f 7/7/8 11/11/14 15/15/20
f 9/9/11 15/15/20 13/13/17
f 12/12/15 16/16/21 11/11/14
f 16/16/22 12/12/15 17/17/23
f 18/18/24 14/14/25 13/13/17
f 19/19/26 14/14/27 18/18/24
f 15/15/20 20/20/28 13/13/17
f 13/13/17 20/20/28 18/18/24
f 11/11/14 21/21/29 15/15/20
f 11/11/14 16/16/21 21/21/29
f 15/15/20 21/21/29 20/20/30
f 22/22/31 19/19/32 18/18/24
f 23/23/33 19/19/32 22/22/31
f 20/20/30 24/24/34 18/18/24
f 18/18/24 24/24/34 22/22/31
f 21/21/29 25/25/35 20/20/30
f 20/20/30 25/25/35 24/24/34
f 16/16/21 26/26/36 21/21/29
f 21/21/29 26/26/36 25/25/35
f 27/27/37 16/16/21 17/17/23
f 26/26/36 16/16/21 27/27/38
f 28/28/39 23/23/33 22/22/31
f 29/29/40 23/23/41 28/28/39
f 24/24/34 30/30/42 22/22/31
f 22/22/31 30/30/43 28/28/44
f 25/25/35 31/31/45 24/24/34
f 24/24/34 31/31/45 30/30/43
f 26/26/36 32/32/46 25/25/35
f 25/25/35 32/32/47 31/31/45
f 33/33/48 29/29/49 28/28/50
f 34/34/51 29/29/52 33/33/48
f 30/30/43 35/35/53 28/28/44
f 28/28/50 35/35/53 33/33/48
f 31/31/45 36/36/54 30/30/43
f 30/30/42 36/36/55 35/35/53
f 37/37/56 34/34/51 33/33/48
f 38/38/57 34/34/51 37/37/56
f 35/35/53 39/39/58 33/33/48
f 33/33/48 39/39/58 37/37/59
f 40/40/60 38/38/61 37/37/56
f 41/41/62 38/38/61 40/40/60
f 32/32/47 26/26/36 42/42/63
f 42/42/63 26/26/36 27/27/38
f 32/32/47 43/43/64 31/31/45
f 31/31/45 43/43/64 36/36/55
f 36/36/55 44/44/65 35/35/53
f 35/35/53 44/44/65 39/39/58
f 39/39/58 45/45/66 37/37/67
f 37/37/67 45/45/66 40/40/60
f 46/46/68 41/41/62 40/40/60
f 47/47/69 41/41/70 46/46/68
f 48/48/71 32/32/47 42/42/63
f 43/43/64 32/32/47 48/48/72
f 43/43/64 49/49/73 36/36/55
f 36/36/55 49/49/74 44/44/65
f 44/44/75 50/50/76 39/39/58
f 39/39/58 50/50/76 45/45/66
f 45/45/66 51/51/77 40/40/60
f 40/40/60 51/51/78 46/46/68
f 52/52/79 47/47/80 46/46/68
f 53/53/81 47/47/80 52/52/79
f 54/54/3 53/53/81 52/52/79
f 46/46/68 55/55/82 52/52/79
f 51/51/78 55/55/82 46/46/68
f 52/52/79 56/56/83 54/54/84
f 55/55/82 56/56/85 52/52/79
f 56/56/83 57/57/6 54/54/84
f 45/45/66 58/58/86 51/51/78
f 50/50/76 58/58/86 45/45/66
f 44/44/65 59/59/87 50/50/76
f 49/49/74 59/59/88 44/44/65
f 51/51/77 60/60/89 55/55/82
f 58/58/86 60/60/90 51/51/78
f 56/56/85 61/61/91 57/57/6
f 61/61/91 62/62/9 57/57/6
f 55/55/82 63/63/92 56/56/85
f 60/60/90 63/63/92 55/55/82
f 63/63/92 61/61/93 56/56/83
f 50/50/94 64/64/95 58/58/86
f 59/59/87 64/64/95 50/50/76
f 61/61/91 65/65/96 62/62/9
f 65/65/96 66/66/97 62/62/9
f 58/58/86 67/67/98 60/60/90
f 64/64/95 67/67/98 58/58/86
f 63/63/92 68/68/99 61/61/91
f 68/68/99 65/65/100 61/61/91
f 60/60/90 69/69/101 63/63/92
f 67/67/98 69/69/102 60/60/90
f 69/69/101 68/68/99 63/63/92
f 66/66/15 65/65/96 70/70/103
f 71/71/104 66/66/15 70/70/105
f 72/72/106 71/71/104 70/70/105
f 65/65/107 68/68/99 73/73/108
f 70/70/103 65/65/107 73/73/108
f 68/68/99 69/69/102 74/74/109
f 73/73/108 68/68/99 74/74/110
f 69/69/101 67/67/98 75/75/111
f 74/74/112 69/69/101 75/75/111
f 67/67/98 64/64/113 76/76/114
f 75/75/111 67/67/98 76/76/114
f 77/77/115 72/72/106 70/70/105
f 77/77/115 70/70/105 73/73/108
f 78/78/116 73/73/108 74/74/112
f 78/78/117 77/77/115 73/73/108
f 72/72/118 77/77/115 79/79/119
f 80/80/120 72/72/118 79/79/119
f 79/79/119 77/77/115 81/81/121
f 77/77/115 78/78/117 81/81/122
f 81/81/123 78/78/124 82/82/125
f 83/83/126 78/78/127 74/74/112
f 78/78/127 83/83/126 82/82/128
f 83/83/126 74/74/110 75/75/129
f 82/82/125 83/83/126 84/84/130
f 85/85/131 83/83/126 75/75/111
f 83/83/126 85/85/132 84/84/130
f 85/85/132 75/75/111 76/76/133
f 84/84/134 85/85/132 86/86/135
f 85/85/132 87/87/136 86/86/135
f 87/87/136 85/85/131 76/76/114
f 86/86/137 87/87/136 88/88/138
f 87/87/136 76/76/114 89/89/139
f 76/76/114 64/64/95 89/89/139
f 64/64/95 59/59/87 89/89/140
f 87/87/136 90/90/131 88/88/138
f 90/90/131 87/87/136 89/89/141
f 88/88/138 90/90/132 91/91/142
f 89/89/141 59/59/87 92/92/143
f 90/90/131 89/89/141 92/92/143
f 59/59/87 49/49/74 92/92/144
f 90/90/132 93/93/126 91/91/142
f 93/93/126 90/90/131 92/92/143
f 91/91/142 93/93/126 94/94/145
f 92/92/144 49/49/73 95/95/146
f 93/93/126 92/92/143 95/95/146
f 49/49/74 43/43/64 95/95/146
f 95/95/146 43/43/64 48/48/71
f 93/93/126 96/96/117 94/94/147
f 96/96/116 93/93/126 95/95/148
f 96/96/127 95/95/146 48/48/71
f 94/94/149 96/96/117 97/97/150
f 98/98/115 96/96/127 48/48/71
f 96/96/117 98/98/115 97/97/150
f 98/98/115 48/48/72 42/42/151
f 97/97/152 98/98/115 99/99/153
f 100/100/106 98/98/115 42/42/63
f 98/98/115 100/100/118 99/99/153
f 100/100/118 42/42/63 27/27/154
f 99/99/155 100/100/118 101/101/156
f 102/102/157 100/100/106 27/27/37
f 100/100/118 102/102/158 101/101/159
f 102/102/157 27/27/37 17/17/104
f 101/101/156 102/102/157 103/103/120
f 104/104/106 102/102/157 17/17/104
f 102/102/157 104/104/118 103/103/120
f 107/107/1 106/106/160 105/105/81
f 105/105/2 106/106/160 108/108/69
f 109/109/7 106/106/160 107/107/161
f 108/108/162 106/106/160 110/110/62
f 111/111/12 106/106/160 109/109/7
f 110/110/62 106/106/160 112/112/57
f 113/113/27 106/106/160 111/111/12
f 112/112/57 106/106/160 114/114/51
f 115/115/26 106/106/160 113/113/27
f 114/114/51 106/106/160 116/116/163
f 117/117/41 106/106/160 115/115/26
f 116/116/164 106/106/160 117/117/33
f 120/120/139 119/119/165 118/118/159
f 121/121/120 120/120/139 118/118/159
f 118/118/166 119/119/165 122/122/167
f 123/123/144 120/120/139 121/121/120
f 124/124/119 123/123/144 121/121/120
f 119/119/165 125/125/111 122/122/167
f 122/122/153 125/125/111 126/126/150
f 127/127/146 123/123/144 124/124/119
f 128/128/168 127/127/146 124/124/119
f 125/125/111 129/129/112 126/126/150
f 126/126/152 129/129/110 130/130/147
f 131/131/71 127/127/146 128/128/122
f 132/132/128 131/131/71 128/128/123
f 129/129/110 133/133/108 130/130/147
f 130/130/147 133/133/108 134/134/142
f 135/135/63 131/131/71 132/132/128
f 136/136/130 135/135/63 132/132/128
f 133/133/108 137/137/103 134/134/142
f 134/134/142 137/137/103 138/138/138
f 139/139/37 135/135/63 136/136/169
f 140/140/137 139/139/37 136/136/169
f 138/138/138 141/141/23 140/140/135
f 137/137/103 141/141/23 138/138/138
f 141/141/23 139/139/37 140/140/135
f 131/131/72 142/142/170 127/127/146
f 135/135/63 143/143/171 131/131/72
f 143/143/171 142/142/172 131/131/72
f 139/139/37 144/144/173 135/135/151
f 144/144/174 143/143/171 135/135/151
f 141/141/104 145/145/175 139/139/37
f 145/145/175 144/144/173 139/139/37
f 137/137/105 146/146/176 141/141/23
f 146/146/176 145/145/175 141/141/23
f 133/133/108 147/147/177 137/137/105
f 147/147/177 146/146/176 137/137/105
f 142/142/172 148/148/178 127/127/146
f 127/127/146 148/148/178 123/123/143
f 149/149/179 147/147/177 133/133/108
f 129/129/112 149/149/180 133/133/108
f 148/148/178 150/150/181 123/123/143
f 123/123/143 150/150/181 120/120/139
f 151/151/182 149/149/180 129/129/110
f 125/125/111 151/151/182 129/129/110
f 150/150/181 152/152/183 120/120/139
f 120/120/141 152/152/183 119/119/165
f 119/119/165 153/153/184 125/125/129
f 153/153/184 151/151/182 125/125/129
f 152/152/183 153/153/184 119/119/165
f 146/146/185 147/147/177 154/154/186
f 147/147/187 149/149/179 155/155/188
f 147/147/177 155/155/188 154/154/189
f 149/149/190 151/151/182 156/156/191
f 149/149/180 156/156/192 155/155/188
f 151/151/193 153/153/184 157/157/194
f 151/151/182 157/157/194 156/156/195
f 158/158/116 155/155/188 156/156/196
f 158/158/117 154/154/189 155/155/188
f 158/158/116 156/156/192 157/157/197
f 158/158/116 159/159/198 154/154/186
f 146/146/176 154/154/199 159/159/198
f 158/158/117 157/157/194 160/160/200
f 153/153/184 160/160/200 157/157/194
f 153/153/201 152/152/183 160/160/200
f 145/145/202 146/146/176 159/159/198
f 152/152/183 161/161/203 160/160/200
f 158/158/116 160/160/204 161/161/203
f 152/152/205 150/150/181 161/161/203
f 145/145/175 159/159/198 162/162/206
f 158/158/117 162/162/206 159/159/207
f 144/144/173 145/145/208 162/162/206
f 150/150/181 163/163/209 161/161/203
f 158/158/116 161/161/203 163/163/210
f 150/150/211 148/148/178 163/163/210
f 144/144/173 162/162/206 164/164/212
f 158/158/117 164/164/213 162/162/206
f 143/143/214 144/144/173 164/164/212
f 148/148/178 165/165/215 163/163/216
f 158/158/117 163/163/217 165/165/215
f 148/148/218 142/142/170 165/165/215
f 143/143/171 164/164/212 166/166/219
f 158/158/116 166/166/220 164/164/212
f 158/158/116 165/165/221 166/166/222
f 142/142/172 166/166/220 165/165/215
f 142/142/223 143/143/171 166/166/224
