# Blender 3.3.1
# www.blender.org
mtllib Ribbon.mtl
o Ribbon
v 3.385552 0.486775 3.316079
v 1.091714 0.195326 3.416630
v 1.579006 0.483381 3.990872
v 2.607719 0.158746 2.626696
v 0.720577 0.073800 2.959725
v 2.015919 0.049119 2.019104
v 0.025480 -0.069013 1.907468
v 0.942448 -0.104321 0.736721
v -0.843185 -0.136411 0.660786
v 0.124022 -0.154761 -0.423763
v -1.362136 -0.123622 -0.666530
v -0.422365 -0.130144 -1.304214
v -1.621533 -0.048633 -1.623856
v -0.771766 -0.077638 -1.968985
v -1.631319 0.038496 -1.919379
v -1.016043 0.034602 -2.714410
v -1.621820 0.128644 -2.152005
v -1.246636 0.198574 -3.387790
v -1.383751 0.394283 -2.610959
v -1.246636 0.198574 -3.387790
v -1.621820 0.128644 -2.152005
v -1.196560 0.366574 -3.769442
v -0.813428 0.558153 -2.851676
v -1.052392 0.475675 -3.888256
v -0.309843 0.632283 -3.003210
v -0.651015 0.667798 -4.116334
v -0.011856 0.636182 -3.025088
v -0.011857 0.737322 -4.187106
v -3.380484 0.483812 3.316079
v -1.574955 0.477909 3.990872
v -1.087938 0.189952 3.416630
v -2.603089 0.152035 2.626696
v -0.717010 0.079360 2.959725
v -2.011622 0.054678 2.019104
v -0.022305 -0.011428 1.907468
v -0.938757 -0.042264 0.736721
v 0.845917 -0.068081 0.660786
v -0.120837 -0.086064 -0.427187
v 1.364508 -0.118174 -0.675121
v 0.425334 -0.117619 -1.318074
v 1.623809 -0.040805 -1.663726
v 0.774560 -0.069897 -2.008854
v 1.633614 0.063348 -1.966942
v 1.018707 0.037465 -2.728879
v 1.249170 0.200001 -3.394024
v 1.624134 0.174441 -2.217577
v 0.653808 0.666994 -4.116334
v -0.011857 0.737322 -4.187106
v -0.011856 0.636182 -3.025088
v 0.312902 0.628762 -3.004344
v 1.054966 0.476234 -3.889950
v 0.816131 0.558305 -2.856521
v 1.199097 0.367412 -3.772613
v 1.386118 0.359481 -2.581923
v 1.249170 0.200001 -3.394024
v 1.624134 0.174441 -2.217577
vn 0.1332 -0.9368 0.3234
vn 0.1035 -0.9651 0.2404
vn 0.1131 -0.9569 0.2673
vn 0.1034 -0.9651 0.2404
vn 0.0600 -0.9924 0.1076
vn 0.1131 -0.9569 0.2674
vn 0.0605 -0.9921 0.1096
vn 0.0397 -0.9970 0.0668
vn 0.0330 -0.9977 0.0584
vn 0.0053 -0.9997 0.0237
vn -0.0017 -0.9999 0.0150
vn -0.0290 -0.9993 -0.0222
vn -0.0323 -0.9991 -0.0274
vn -0.0771 -0.9934 -0.0853
vn -0.0324 -0.9991 -0.0275
vn -0.0825 -0.9924 -0.0910
vn -0.1741 -0.9718 -0.1592
vn -0.2517 -0.9522 -0.1732
vn -0.0825 -0.9924 -0.0911
vn -0.3154 -0.9309 -0.1841
vn -0.3155 -0.9309 -0.1841
vn 0.9533 -0.2065 0.2203
vn 0.8143 -0.5561 0.1664
vn 0.4542 -0.8889 0.0597
vn 0.4542 -0.8889 0.0596
vn 0.3146 -0.9492 -0.0093
vn 0.3009 -0.9535 -0.0202
vn 0.1628 -0.9848 -0.0609
vn 0.3008 -0.9535 -0.0201
vn 0.1681 -0.9839 -0.0603
vn 0.3008 -0.9535 -0.0202
vn -0.0020 -0.9975 -0.0713
vn -0.0023 -0.9975 -0.0712
vn -0.0020 -0.9975 -0.0712
vn 0.1681 -0.9839 -0.0604
vn -0.0999 -0.9668 0.2351
vn -0.1342 -0.9362 0.3248
vn -0.1343 -0.9362 0.3248
vn -0.1111 -0.9580 0.2643
vn -0.0411 -0.9955 0.0850
vn -0.1111 -0.9580 0.2642
vn -0.0421 -0.9953 0.0874
vn -0.0234 -0.9986 0.0479
vn -0.0204 -0.9988 0.0435
vn -0.0421 -0.9953 0.0875
vn -0.0142 -0.9994 0.0313
vn -0.0205 -0.9988 0.0435
vn -0.0149 -0.9994 0.0305
vn 0.0017 -1.0000 0.0039
vn -0.0150 -0.9994 0.0305
vn 0.0089 -0.9999 -0.0056
vn 0.0778 -0.9933 -0.0857
vn 0.0088 -0.9999 -0.0056
vn 0.0847 -0.9921 -0.0921
vn 0.2018 -0.9650 -0.1673
vn 0.2878 -0.9411 -0.1774
vn 0.3631 -0.9132 -0.1852
vn 0.3630 -0.9132 -0.1853
vn 0.3630 -0.9132 -0.1852
vn -0.0023 -0.9975 -0.0713
vn -0.1634 -0.9847 -0.0614
vn -0.1576 -0.9856 -0.0620
vn -0.0016 -0.9975 -0.0710
vn -0.3103 -0.9503 -0.0253
vn -0.3293 -0.9441 -0.0163
vn -0.1576 -0.9856 -0.0621
vn -0.3103 -0.9503 -0.0254
vn -0.4599 -0.8872 0.0379
vn -0.3293 -0.9441 -0.0162
vn -0.4598 -0.8872 0.0379
vn -0.7664 -0.6262 0.1431
vn -0.9281 -0.3032 0.2161
vn -0.7664 -0.6262 0.1432
vn -0.9281 -0.3032 0.2160
vt 0.000000 0.000000
vt 1.000000 0.125000
vt 1.000000 0.000000
vt 0.000000 0.125000
vt 1.000000 0.250000
vt 0.000000 0.250000
vt 1.000000 0.375000
vt 0.000000 0.375000
vt 1.000000 0.500000
vt 0.000000 0.500000
vt 1.000000 0.562500
vt 0.000000 0.562500
vt 1.000000 0.625000
vt 0.000000 0.625000
vt 1.000000 0.687500
vt 0.000000 0.687500
vt 1.000000 0.750000
vt 0.000000 0.750000
vt 1.000000 0.812500
vt 0.000000 0.750000
vt 1.000000 0.750000
vt 0.000000 0.812500
vt 1.000000 0.875000
vt 0.000000 0.875000
vt 1.000000 0.937500
vt 0.000000 0.937500
vt 1.009238 0.989575
vt -0.002128 1.002437
vt 0.000000 0.000000
vt 1.000000 0.000000
vt 1.000000 0.125000
vt 0.000000 0.125000
vt 1.000000 0.250000
vt 0.000000 0.250000
vt 1.000000 0.375000
vt 0.000000 0.375000
vt 1.000000 0.500000
vt 0.000000 0.500000
vt 1.000000 0.562500
vt 0.000000 0.562500
vt 1.000000 0.625000
vt 0.000000 0.625000
vt 1.000000 0.687500
vt 0.000000 0.687500
vt 0.000000 0.750000
vt 1.000000 0.750000
vt 0.000000 0.937500
vt 0.001175 1.003621
vt 1.012411 0.990907
vt 1.000000 0.937500
vt 0.000000 0.875000
vt 1.000000 0.875000
vt 0.000000 0.812500
vt 1.000000 0.812500
vt 0.000000 0.750000
vt 1.000000 0.750000
s 0
usemtl Material.003
f 3/3/1 2/2/2 1/1/1
f 2/2/2 4/4/3 1/1/1
f 2/2/4 5/5/5 4/4/6
f 5/5/5 6/6/7 4/4/3
f 5/5/5 7/7/8 6/6/7
f 7/7/8 8/8/9 6/6/7
f 7/7/8 9/9/10 8/8/9
f 9/9/10 10/10/11 8/8/9
f 9/9/10 11/11/12 10/10/11
f 11/11/12 12/12/13 10/10/11
f 11/11/12 13/13/14 12/12/15
f 13/13/14 14/14/16 12/12/13
f 13/13/14 15/15/17 14/14/16
f 15/15/17 16/16/18 14/14/19
f 15/15/17 17/17/20 16/16/18
f 17/17/21 18/18/21 16/16/18
f 21/21/22 20/20/22 19/19/23
f 20/20/22 22/22/24 19/19/23
f 19/19/23 22/22/25 23/23/26
f 22/22/24 24/24/27 23/23/26
f 25/25/28 23/23/26 24/24/29
f 26/26/30 25/25/28 24/24/31
f 27/27/32 25/25/28 26/26/30
f 28/28/33 27/27/34 26/26/35
f 31/31/36 30/30/37 29/29/38
f 32/32/39 31/31/36 29/29/37
f 33/33/40 31/31/36 32/32/41
f 34/34/42 33/33/40 32/32/39
f 35/35/43 33/33/40 34/34/42
f 36/36/44 35/35/43 34/34/45
f 37/37/46 35/35/43 36/36/47
f 38/38/48 37/37/46 36/36/47
f 39/39/49 37/37/46 38/38/50
f 40/40/51 39/39/49 38/38/50
f 41/41/52 39/39/49 40/40/53
f 42/42/54 41/41/52 40/40/51
f 43/43/55 41/41/52 42/42/54
f 44/44/56 43/43/55 42/42/54
f 44/44/56 45/45/57 43/43/55
f 45/45/58 46/46/59 43/43/55
f 49/49/34 48/48/60 47/47/61
f 50/50/62 49/49/63 47/47/61
f 50/50/62 47/47/61 51/51/64
f 52/52/65 50/50/66 51/51/67
f 51/51/67 53/53/68 52/52/69
f 53/53/70 54/54/71 52/52/69
f 53/53/68 55/55/72 54/54/73
f 55/55/72 56/56/74 54/54/73
