# Blender 3.3.1
# www.blender.org
mtllib Sparkler.mtl
o Sparkler
v 0.012242 -3.055938 -0.081190
v -0.061998 1.152077 -0.006803
v -0.061998 -3.055938 -0.006803
v 0.012242 1.152077 -0.081190
v -0.149175 1.296882 -0.006803
v 0.012242 1.296882 -0.168220
v -0.149175 6.578365 -0.006802
v 0.012242 6.578365 -0.168219
v -0.061998 -3.055938 -0.006803
v 0.012242 1.152077 0.067438
v 0.012242 -3.055938 0.067437
v -0.061998 1.152077 -0.006803
v 0.012242 1.296882 0.154615
v -0.149175 1.296882 -0.006803
v 0.012242 6.578365 0.154616
v -0.149175 6.578365 -0.006802
v 0.012242 -3.055938 0.067437
v 0.086629 1.152077 -0.006803
v 0.086629 -3.055938 -0.006803
v 0.012242 1.152077 0.067438
v 0.173806 1.296882 -0.006803
v 0.012242 1.296882 0.154615
v 0.173806 6.578365 -0.006802
v 0.012242 6.578365 0.154616
v 0.086629 -3.055938 -0.006803
v 0.012242 1.152077 -0.081190
v 0.012242 -3.055938 -0.081190
v 0.086629 1.152077 -0.006803
v 0.012242 1.296882 -0.168220
v 0.173806 1.296882 -0.006803
v 0.012242 6.578365 -0.168219
v 0.173806 6.578365 -0.006802
v -0.061998 -3.055938 -0.006803
v 0.012242 -3.055938 -0.006803
v 0.012242 -3.055938 -0.081190
v 0.012242 -3.055938 0.067437
v 0.086629 -3.055938 -0.006803
v 0.012242 -3.055938 -0.006803
v 0.012242 -3.055938 -0.081190
vn -0.7071 -0.0025 -0.7071
vn -0.7070 -0.0293 -0.7066
vn -0.7071 -0.0293 -0.7065
vn -0.7071 -0.0024 0.7071
vn -0.7073 -0.0293 0.7063
vn -0.7071 -0.0293 0.7065
vn -0.7071 -0.0025 0.7071
vn 0.7054 -0.0025 0.7088
vn 0.7056 -0.0293 0.7080
vn 0.7054 -0.0293 0.7082
vn 0.7055 -0.0025 0.7088
vn 0.7055 -0.0293 0.7082
vn 0.7054 -0.0025 -0.7088
vn 0.7054 -0.0293 -0.7082
vn 0.0025 -1.0000 -0.0000
vt -0.499950 -0.000240
vt -0.000240 0.437006
vt -0.000240 -0.000240
vt -0.499950 0.437006
vt -0.000240 0.451615
vt -0.499950 0.451615
vt -0.000240 1.000187
vt -0.499950 1.000187
vt -0.000240 -0.000240
vt 0.499974 0.437006
vt 0.499974 -0.000240
vt -0.000240 0.437006
vt 0.499974 0.451615
vt -0.000240 0.451615
vt 0.499974 1.000187
vt -0.000240 1.000187
vt 0.499974 -0.000240
vt 1.000187 0.437006
vt 1.000187 -0.000240
vt 0.499974 0.437006
vt 1.000187 0.451615
vt 0.499974 0.451615
vt 1.000187 1.000187
vt 0.499974 1.000187
vt 1.000187 -0.000240
vt 1.499897 0.437006
vt 1.499897 -0.000240
vt 1.000187 0.437006
vt 1.499897 0.451615
vt 1.000187 0.451615
vt 1.499897 1.000187
vt 1.000187 1.000187
vt -0.000240 -0.000240
vt -0.436982 -0.000240
vt -0.499950 -0.000240
vt 0.499974 -0.000240
vt 1.000187 -0.000240
vt 1.562865 -0.000240
vt 1.499897 -0.000240
s 0
usemtl Material.053
f 3/3/1 2/2/2 1/1/1
f 2/2/3 4/4/3 1/1/1
f 2/2/3 5/5/1 4/4/3
f 5/5/1 6/6/1 4/4/3
f 5/5/1 7/7/1 6/6/1
f 7/7/1 8/8/1 6/6/1
f 11/11/4 10/10/5 9/9/4
f 10/10/6 12/12/6 9/9/7
f 10/10/6 13/13/7 12/12/6
f 13/13/7 14/14/7 12/12/6
f 13/13/7 15/15/7 14/14/7
f 15/15/7 16/16/7 14/14/7
f 19/19/8 18/18/9 17/17/8
f 18/18/10 20/20/10 17/17/8
f 18/18/10 21/21/11 20/20/12
f 21/21/8 22/22/11 20/20/10
f 21/21/11 23/23/11 22/22/11
f 23/23/8 24/24/8 22/22/8
f 27/27/13 26/26/14 25/25/13
f 26/26/14 28/28/14 25/25/13
f 26/26/14 29/29/13 28/28/14
f 29/29/13 30/30/13 28/28/14
f 29/29/13 31/31/13 30/30/13
f 31/31/13 32/32/13 30/30/13
f 35/35/15 34/34/15 33/33/15
f 33/33/15 34/34/15 36/36/15
f 36/36/15 38/38/15 37/37/15
f 37/37/15 38/38/15 39/39/15
