# Blender 3.3.1
# www.blender.org
mtllib Twister.mtl
o inner_bottom
v -0.638513 0.770435 -1.965167
v -0.000032 0.000032 -0.944290
v -0.292188 0.000032 -0.899203
v 0.000031 0.770435 -2.063730
v 0.292188 0.000032 -0.899203
v 0.638513 0.770435 -1.965167
v 0.555022 0.000032 -0.763939
v 1.213052 0.770435 -1.669605
v 0.764885 0.000032 -0.555715
v 1.671686 0.770435 -1.214565
v 1.962708 0.770434 -0.637693
v 0.898067 0.000032 -0.291810
v 0.945489 0.000032 0.000032
v 2.066315 0.770434 0.000032
v 0.898067 0.000032 0.291810
v 1.962708 0.770434 0.637694
v 0.764885 0.000032 0.555715
v 1.671686 0.770434 1.214565
v 1.213052 0.770434 1.669605
v 0.555022 0.000032 0.763939
v 0.292188 0.000032 0.899203
v 0.638513 0.770434 1.965167
v -0.000032 0.000032 0.944291
v -0.000032 0.770434 2.063730
v -0.292188 0.000032 0.899203
v -0.638513 0.770434 1.965167
v -0.555022 0.000032 0.763939
v -1.213052 0.770434 1.669605
v -0.764885 0.000032 0.555715
v -1.671686 0.770434 1.214565
v -0.898068 0.000032 0.291810
v -1.962708 0.770434 0.637694
v -0.945489 0.000032 0.000032
v -2.066315 0.770434 0.000032
v -0.898068 0.000032 -0.291810
v -1.962708 0.770434 -0.637693
v -0.764885 0.000032 -0.555715
v -1.671686 0.770435 -1.214565
v -0.555022 0.000032 -0.763939
v -1.213052 0.770435 -1.669605
v -0.292188 0.000032 -0.899203
v -0.638513 0.770435 -1.965167
vn 0.1738 0.8241 0.5391
vn -0.0007 0.8241 0.5664
vn -0.0007 0.8241 0.5665
vn -0.1752 0.8241 0.5387
vn -0.3333 0.8241 0.4580
vn -0.4587 0.8241 0.3323
vn -0.5405 0.8241 0.1694
vn -0.5674 0.8235 -0.0000
vn -0.5405 0.8241 -0.1693
vn -0.5405 0.8241 -0.1694
vn -0.4587 0.8241 -0.3323
vn -0.3333 0.8241 -0.4580
vn -0.1752 0.8241 -0.5387
vn -0.0007 0.8241 -0.5664
vn -0.0007 0.8241 -0.5665
vn 0.1738 0.8241 -0.5391
vn 0.3320 0.8241 -0.4590
vn 0.4574 0.8241 -0.3342
vn 0.4574 0.8241 -0.3341
vn 0.5392 0.8241 -0.1736
vn 0.5664 0.8241 -0.0000
vn 0.5665 0.8241 -0.0000
vn 0.5392 0.8241 0.1736
vn 0.4574 0.8241 0.3341
vn 0.4574 0.8241 0.3342
vn 0.3320 0.8241 0.4590
vt 1.000000 1.000000
vt 0.950147 0.399805
vt 1.000000 0.399805
vt 0.950147 1.000000
vt 0.900293 0.399805
vt 0.900293 1.000000
vt 0.850440 0.399805
vt 0.850440 1.000000
vt 0.799609 0.399805
vt 0.799609 1.000000
vt 0.749756 1.000000
vt 0.749756 0.399805
vt 0.699902 0.399805
vt 0.699902 1.000000
vt 0.650049 0.399805
vt 0.650049 1.000000
vt 0.600196 0.399805
vt 0.600196 1.000000
vt 0.550342 1.000000
vt 0.550342 0.399805
vt 0.499511 0.399805
vt 0.499511 1.000000
vt 0.449658 0.399805
vt 0.449658 1.000000
vt 0.399805 0.399805
vt 0.399805 1.000000
vt 0.349951 0.399805
vt 0.349951 1.000000
vt 0.300098 0.399805
vt 0.300098 1.000000
vt 0.250244 0.399805
vt 0.250244 1.000000
vt 0.200391 0.399805
vt 0.200391 1.000000
vt 0.149560 0.399805
vt 0.149560 1.000000
vt 0.099707 0.399805
vt 0.099707 1.000000
vt 0.049853 0.399805
vt 0.049853 1.000000
vt 0.000000 0.399805
vt 0.000000 1.000000
s 0
usemtl Material.001
f 3/3/1 2/2/2 1/1/1
f 2/2/3 4/4/2 1/1/1
f 2/2/2 5/5/4 4/4/2
f 5/5/4 6/6/4 4/4/2
f 5/5/4 7/7/5 6/6/4
f 7/7/5 8/8/5 6/6/4
f 7/7/5 9/9/6 8/8/5
f 9/9/6 10/10/6 8/8/5
f 11/11/7 10/10/6 9/9/6
f 12/12/7 11/11/7 9/9/6
f 12/12/7 13/13/8 11/11/7
f 13/13/8 14/14/8 11/11/7
f 13/13/8 15/15/9 14/14/8
f 15/15/10 16/16/10 14/14/8
f 15/15/10 17/17/11 16/16/10
f 17/17/11 18/18/11 16/16/10
f 18/18/11 17/17/11 19/19/12
f 17/17/11 20/20/12 19/19/12
f 20/20/12 21/21/13 19/19/12
f 21/21/13 22/22/13 19/19/12
f 21/21/13 23/23/14 22/22/13
f 23/23/14 24/24/15 22/22/13
f 23/23/14 25/25/16 24/24/14
f 25/25/16 26/26/16 24/24/15
f 25/25/16 27/27/17 26/26/16
f 27/27/17 28/28/17 26/26/16
f 27/27/17 29/29/18 28/28/17
f 29/29/19 30/30/19 28/28/17
f 29/29/18 31/31/20 30/30/19
f 31/31/20 32/32/20 30/30/18
f 31/31/20 33/33/21 32/32/20
f 33/33/21 34/34/22 32/32/20
f 33/33/21 35/35/23 34/34/21
f 35/35/23 36/36/23 34/34/22
f 35/35/23 37/37/24 36/36/23
f 37/37/25 38/38/25 36/36/23
f 37/37/25 39/39/26 38/38/25
f 39/39/26 40/40/26 38/38/24
f 39/39/26 41/41/1 40/40/26
f 41/41/1 42/42/1 40/40/26
o inner_top
v -0.267752 1.571298 -0.824029
v -0.235502 0.000005 -0.724787
v -0.000005 0.000005 -0.761128
v -0.000005 1.571298 -0.865355
v 0.235492 0.000005 -0.724787
v 0.267742 1.571298 -0.824029
v 0.447368 0.000005 -0.615761
v 0.508632 1.571298 -0.700087
v 0.616542 0.000005 -0.447963
v 0.700943 1.571298 -0.509264
v 0.822988 1.571298 -0.267407
v 0.723894 0.000005 -0.235194
v 0.762096 0.000005 0.000005
v 0.866434 1.571298 0.000005
v 0.723894 0.000005 0.235204
v 0.822988 1.571298 0.267417
v 0.616542 0.000005 0.447936
v 0.700943 1.571298 0.509275
v 0.508632 1.571298 0.700061
v 0.447368 0.000005 0.615771
v 0.235492 0.000005 0.724797
v 0.267742 1.571298 0.824040
v -0.000005 0.000005 0.761138
v -0.000005 1.571298 0.865329
v -0.235502 0.000005 0.724797
v -0.267752 1.571298 0.824040
v -0.447378 0.000005 0.615771
v -0.508642 1.571298 0.700061
v -0.616552 0.000005 0.447936
v -0.700953 1.571298 0.509275
v -0.723867 0.000005 0.235204
v -0.822998 1.571298 0.267417
v -0.762106 0.000005 0.000005
v -0.866444 1.571298 0.000005
v -0.723867 0.000005 -0.235194
v -0.822998 1.571298 -0.267407
v -0.616552 0.000005 -0.447963
v -0.700953 1.571298 -0.509264
v -0.447378 0.000005 -0.615761
v -0.508642 1.571298 -0.700087
v -0.235502 0.000005 -0.724787
v -0.267752 1.571298 -0.824029
vn -0.0039 -0.0665 -0.9978
vn -0.3091 -0.0665 -0.9487
vn 0.3091 -0.0665 -0.9487
vn 0.5830 -0.0665 -0.8097
vn 0.8100 -0.0665 -0.5827
vn 0.9508 -0.0665 -0.3025
vn 0.9978 -0.0665 -0.0000
vn 0.9508 -0.0665 0.3025
vn 0.8100 -0.0665 0.5827
vn 0.5830 -0.0665 0.8097
vn 0.3091 -0.0665 0.9487
vn 0.0039 -0.0665 0.9978
vn -0.3091 -0.0665 0.9487
vn -0.5830 -0.0665 0.8097
vn -0.8100 -0.0665 0.5827
vn -0.9508 -0.0665 0.3025
vn -0.9978 -0.0665 -0.0000
vn -0.9508 -0.0665 -0.3025
vn -0.8100 -0.0665 -0.5827
vn -0.5830 -0.0665 -0.8097
vt 1.000000 1.000000
vt 1.000000 0.000000
vt 0.950147 0.000000
vt 0.950147 1.000000
vt 0.900293 0.000000
vt 0.900293 1.000000
vt 0.850440 0.000000
vt 0.850440 1.000000
vt 0.799609 0.000000
vt 0.799609 1.000000
vt 0.749756 1.000000
vt 0.749756 0.000000
vt 0.699902 0.000000
vt 0.699902 1.000000
vt 0.650049 0.000000
vt 0.650049 1.000000
vt 0.600196 0.000000
vt 0.600196 1.000000
vt 0.550342 1.000000
vt 0.550342 0.000000
vt 0.500489 0.000000
vt 0.500489 1.000000
vt 0.449658 0.000000
vt 0.449658 1.000000
vt 0.399805 0.000000
vt 0.399805 1.000000
vt 0.349951 0.000000
vt 0.349951 1.000000
vt 0.300098 0.000000
vt 0.300098 1.000000
vt 0.250244 0.000000
vt 0.250244 1.000000
vt 0.200391 0.000000
vt 0.200391 1.000000
vt 0.149560 0.000000
vt 0.149560 1.000000
vt 0.099707 0.000000
vt 0.099707 1.000000
vt 0.049853 0.000000
vt 0.049853 1.000000
vt 0.000000 0.000000
vt 0.000000 1.000000
s 0
usemtl Material.002
f 45/45/27 44/44/28 43/43/28
f 46/46/27 45/45/27 43/43/28
f 47/47/29 45/45/27 46/46/27
f 48/48/29 47/47/29 46/46/27
f 49/49/30 47/47/29 48/48/29
f 50/50/30 49/49/30 48/48/29
f 51/51/31 49/49/30 50/50/30
f 52/52/31 51/51/31 50/50/30
f 52/52/31 53/53/32 51/51/31
f 53/53/32 54/54/32 51/51/31
f 55/55/33 54/54/32 53/53/32
f 56/56/33 55/55/33 53/53/32
f 57/57/34 55/55/33 56/56/33
f 58/58/34 57/57/34 56/56/33
f 59/59/35 57/57/34 58/58/34
f 60/60/35 59/59/35 58/58/34
f 59/59/35 60/60/35 61/61/36
f 62/62/36 59/59/35 61/61/36
f 63/63/37 62/62/36 61/61/36
f 64/64/37 63/63/37 61/61/36
f 65/65/38 63/63/37 64/64/37
f 66/66/38 65/65/38 64/64/37
f 67/67/39 65/65/38 66/66/38
f 68/68/39 67/67/39 66/66/38
f 69/69/40 67/67/39 68/68/39
f 70/70/40 69/69/40 68/68/39
f 71/71/41 69/69/40 70/70/40
f 72/72/41 71/71/41 70/70/40
f 73/73/42 71/71/41 72/72/41
f 74/74/42 73/73/42 72/72/41
f 75/75/43 73/73/42 74/74/42
f 76/76/43 75/75/43 74/74/42
f 77/77/44 75/75/43 76/76/43
f 78/78/44 77/77/44 76/76/43
f 79/79/45 77/77/44 78/78/44
f 80/80/45 79/79/45 78/78/44
f 81/81/46 79/79/45 80/80/45
f 82/82/46 81/81/46 80/80/45
f 83/83/28 81/81/46 82/82/46
f 84/84/28 83/83/28 82/82/46
o outer_bottom
v -0.720913 0.858468 -2.218773
v -0.329895 -0.000035 -1.015245
v 0.000036 -0.000035 -1.066151
v 0.000036 0.858468 -2.330055
v 0.329895 -0.000035 -1.015245
v 0.720913 0.858468 -2.218773
v 0.626647 -0.000035 -0.862526
v 1.369596 0.858468 -1.885069
v 0.863594 -0.000035 -0.627431
v 1.887418 0.858468 -1.371305
v 2.215996 0.858468 -0.719988
v 1.013963 -0.000035 -0.329468
v 1.067504 -0.000036 -0.000036
v 2.332974 0.858468 0.000036
v 1.013963 -0.000036 0.329468
v 2.215996 0.858467 0.719988
v 0.863594 -0.000036 0.627431
v 1.887418 0.858467 1.371305
v 1.369596 0.858467 1.885069
v 0.626647 -0.000036 0.862526
v 0.329895 -0.000036 1.015245
v 0.720913 0.858467 2.218773
v 0.000036 -0.000036 1.066152
v 0.000036 0.858467 2.330055
v -0.329895 -0.000036 1.015245
v -0.720913 0.858467 2.218773
v -0.626647 -0.000036 0.862526
v -1.369597 0.858467 1.885069
v -0.863594 -0.000036 0.627431
v -1.887418 0.858467 1.371305
v -1.013964 -0.000036 0.329468
v -2.215996 0.858467 0.719988
v -1.067504 -0.000036 -0.000036
v -2.332974 0.858468 0.000036
v -1.013964 -0.000035 -0.329468
v -2.215996 0.858468 -0.719988
v -0.863594 -0.000035 -0.627431
v -1.887418 0.858468 -1.371305
v -0.626647 -0.000035 -0.862526
v -1.369597 0.858468 -1.885069
v -0.329895 -0.000035 -1.015245
v -0.720913 0.858468 -2.218773
vn -0.0004 -0.8275 -0.5614
vn -0.1747 -0.8276 -0.5335
vn 0.1739 -0.8276 -0.5338
vn -0.0004 -0.8276 -0.5614
vn 0.3319 -0.8276 -0.4528
vn 0.3319 -0.8275 -0.4528
vn 0.4517 -0.8276 -0.3333
vn 0.5334 -0.8276 -0.1750
vn 0.5607 -0.8275 0.0287
vn 0.5334 -0.8275 -0.1750
vn 0.5607 -0.8275 0.0286
vn 0.5607 -0.8276 0.0286
vn 0.5334 -0.8276 0.1750
vn 0.5607 -0.8276 0.0287
vn 0.4517 -0.8276 0.3333
vn 0.3319 -0.8276 0.4528
vn 0.1739 -0.8276 0.5338
vn 0.3319 -0.8275 0.4528
vn -0.0004 -0.8276 0.5614
vn -0.1747 -0.8276 0.5335
vn -0.0004 -0.8275 0.5614
vn -0.3326 -0.8276 0.4522
vn -0.1747 -0.8275 0.5335
vn -0.3326 -0.8275 0.4522
vn -0.4525 -0.8276 0.3323
vn -0.5342 -0.8276 0.1727
vn -0.4525 -0.8275 0.3323
vn -0.5341 -0.8276 0.1727
vn -0.4524 -0.8275 0.3323
vn -0.5614 -0.8276 -0.0000
vn -0.5342 -0.8276 0.1728
vn -0.5342 -0.8275 0.1728
vn -0.5614 -0.8275 -0.0000
vn -0.5342 -0.8276 -0.1727
vn -0.5342 -0.8275 -0.1727
vn -0.4524 -0.8276 -0.3323
vn -0.4524 -0.8275 -0.3324
vn -0.3326 -0.8276 -0.4522
vn -0.4525 -0.8276 -0.3323
vn -0.4525 -0.8275 -0.3323
vt 1.000000 1.000000
vt 1.000000 0.399805
vt 0.950147 0.399805
vt 0.950147 1.000000
vt 0.900293 0.399805
vt 0.900293 1.000000
vt 0.850440 0.399805
vt 0.850440 1.000000
vt 0.799609 0.399805
vt 0.799609 1.000000
vt 0.749756 1.000000
vt 0.749756 0.399805
vt 0.699902 0.399805
vt 0.699902 1.000000
vt 0.650049 0.399805
vt 0.650049 1.000000
vt 0.600196 0.399805
vt 0.600196 1.000000
vt 0.550342 1.000000
vt 0.550342 0.399805
vt 0.499511 0.399805
vt 0.499511 1.000000
vt 0.449658 0.399805
vt 0.449658 1.000000
vt 0.399805 0.399805
vt 0.399805 1.000000
vt 0.349951 0.399805
vt 0.349951 1.000000
vt 0.300098 0.399805
vt 0.300098 1.000000
vt 0.250244 0.399805
vt 0.250244 1.000000
vt 0.200391 0.399805
vt 0.200391 1.000000
vt 0.149560 0.399805
vt 0.149560 1.000000
vt 0.099707 0.399805
vt 0.099707 1.000000
vt 0.049853 0.399805
vt 0.049853 1.000000
vt 0.000000 0.399805
vt 0.000000 1.000000
s 0
usemtl Material.004
f 87/87/47 86/86/48 85/85/48
f 88/88/47 87/87/47 85/85/48
f 89/89/49 87/87/50 88/88/50
f 90/90/49 89/89/49 88/88/50
f 91/91/51 89/89/49 90/90/49
f 92/92/51 91/91/52 90/90/49
f 93/93/53 91/91/51 92/92/51
f 94/94/53 93/93/53 92/92/51
f 94/94/53 95/95/54 93/93/53
f 95/95/54 96/96/54 93/93/53
f 97/97/55 96/96/54 95/95/56
f 98/98/57 97/97/58 95/95/54
f 99/99/59 97/97/60 98/98/60
f 100/100/59 99/99/59 98/98/58
f 101/101/61 99/99/59 100/100/59
f 102/102/61 101/101/61 100/100/59
f 101/101/61 102/102/61 103/103/62
f 104/104/62 101/101/61 103/103/62
f 105/105/63 104/104/62 103/103/62
f 106/106/63 105/105/63 103/103/64
f 107/107/65 105/105/63 106/106/63
f 108/108/65 107/107/65 106/106/63
f 109/109/66 107/107/65 108/108/65
f 110/110/66 109/109/66 108/108/67
f 111/111/68 109/109/69 110/110/66
f 112/112/68 111/111/70 110/110/66
f 113/113/71 111/111/70 112/112/70
f 114/114/71 113/113/71 112/112/68
f 115/115/72 113/113/71 114/114/73
f 116/116/74 115/115/74 114/114/75
f 117/117/76 115/115/77 116/116/78
f 118/118/79 117/117/76 116/116/74
f 119/119/80 117/117/76 118/118/79
f 120/120/80 119/119/81 118/118/76
f 121/121/82 119/119/80 120/120/80
f 122/122/83 121/121/82 120/120/80
f 123/123/84 121/121/85 122/122/86
f 124/124/84 123/123/84 122/122/85
f 125/125/48 123/123/84 124/124/84
f 126/126/48 125/125/48 124/124/84
o outer_top
v -0.320981 1.750888 -0.987826
v -0.282289 -0.000006 -0.868855
v 0.000006 -0.000006 -0.912400
v 0.000006 1.750888 -1.037330
v 0.282301 -0.000006 -0.868855
v 0.320951 1.750888 -0.987826
v 0.536290 -0.000006 -0.738179
v 0.609716 1.750888 -0.839230
v 0.739073 -0.000006 -0.536971
v 0.840294 1.750888 -0.610482
v 0.986592 1.750888 -0.320567
v 0.867749 -0.000006 -0.281961
v 0.913549 -0.000006 -0.000006
v 1.038650 1.750888 -0.000006
v 0.867749 -0.000006 0.281948
v 0.986592 1.750888 0.320556
v 0.739073 -0.000006 0.536959
v 0.840294 1.750888 0.610513
v 0.609716 1.750888 0.839218
v 0.536290 -0.000006 0.738167
v 0.282301 -0.000006 0.868843
v 0.320951 1.750888 0.987814
v 0.000006 -0.000006 0.912430
v 0.000006 1.750888 1.037360
v -0.282289 -0.000006 0.868843
v -0.320981 1.750888 0.987814
v -0.536321 -0.000006 0.738167
v -0.609746 1.750888 0.839218
v -0.739103 -0.000006 0.536959
v -0.840282 1.750888 0.610513
v -0.867779 -0.000006 0.281948
v -0.986580 1.750888 0.320556
v -0.913580 -0.000006 -0.000006
v -1.038637 1.750888 -0.000006
v -0.867779 -0.000006 -0.281961
v -0.986580 1.750888 -0.320567
v -0.739103 -0.000006 -0.536971
v -0.840282 1.750888 -0.610482
v -0.536321 -0.000006 -0.738179
v -0.609746 1.750888 -0.839230
v -0.282289 -0.000006 -0.868855
v -0.320981 1.750888 -0.987826
vn -0.0039 -0.0743 -0.9972
vn -0.3089 -0.0743 -0.9482
vn -0.3090 -0.0743 -0.9482
vn 0.3089 -0.0743 -0.9482
vn 0.5827 -0.0743 -0.8093
vn 0.3090 -0.0743 -0.9482
vn 0.8095 -0.0743 -0.5824
vn 0.9503 -0.0743 -0.3023
vn 0.9972 -0.0743 -0.0004
vn 0.9503 -0.0743 0.3023
vn 0.8095 -0.0743 0.5824
vn 0.5827 -0.0743 0.8093
vn 0.3089 -0.0743 0.9482
vn 0.3090 -0.0743 0.9482
vn 0.0039 -0.0743 0.9972
vn -0.3089 -0.0743 0.9482
vn -0.5827 -0.0743 0.8093
vn -0.3090 -0.0743 0.9482
vn -0.8095 -0.0743 0.5824
vn -0.9503 -0.0743 0.3023
vn -0.9972 -0.0743 -0.0004
vn -0.9503 -0.0743 -0.3023
vn -0.8095 -0.0743 -0.5824
vn -0.5827 -0.0743 -0.8093
vt 1.000000 1.000000
vt 1.000000 0.000000
vt 0.950147 0.000000
vt 0.950147 1.000000
vt 0.900293 0.000000
vt 0.900293 1.000000
vt 0.850440 0.000000
vt 0.850440 1.000000
vt 0.799609 0.000000
vt 0.799609 1.000000
vt 0.749756 1.000000
vt 0.749756 0.000000
vt 0.699902 0.000000
vt 0.699902 1.000000
vt 0.650049 0.000000
vt 0.650049 1.000000
vt 0.600196 0.000000
vt 0.600196 1.000000
vt 0.550342 1.000000
vt 0.550342 0.000000
vt 0.500489 0.000000
vt 0.500489 1.000000
vt 0.449658 0.000000
vt 0.449658 1.000000
vt 0.399805 0.000000
vt 0.399805 1.000000
vt 0.349951 0.000000
vt 0.349951 1.000000
vt 0.300098 0.000000
vt 0.300098 1.000000
vt 0.250244 0.000000
vt 0.250244 1.000000
vt 0.200391 0.000000
vt 0.200391 1.000000
vt 0.149560 0.000000
vt 0.149560 1.000000
vt 0.099707 0.000000
vt 0.099707 1.000000
vt 0.049853 0.000000
vt 0.049853 1.000000
vt 0.000000 0.000000
vt 0.000000 1.000000
s 0
usemtl Material.003
f 129/129/87 128/128/88 127/127/88
f 130/130/87 129/129/87 127/127/89
f 131/131/90 129/129/87 130/130/87
f 132/132/90 131/131/90 130/130/87
f 133/133/91 131/131/90 132/132/90
f 134/134/91 133/133/91 132/132/92
f 135/135/93 133/133/91 134/134/91
f 136/136/93 135/135/93 134/134/91
f 136/136/93 137/137/94 135/135/93
f 137/137/94 138/138/94 135/135/93
f 139/139/95 138/138/94 137/137/94
f 140/140/95 139/139/95 137/137/94
f 141/141/96 139/139/95 140/140/95
f 142/142/96 141/141/96 140/140/95
f 143/143/97 141/141/96 142/142/96
f 144/144/97 143/143/97 142/142/96
f 143/143/97 144/144/97 145/145/98
f 146/146/98 143/143/97 145/145/98
f 147/147/99 146/146/98 145/145/98
f 148/148/100 147/147/100 145/145/98
f 149/149/101 147/147/99 148/148/99
f 150/150/101 149/149/101 148/148/100
f 151/151/102 149/149/101 150/150/101
f 152/152/102 151/151/102 150/150/101
f 153/153/103 151/151/104 152/152/104
f 154/154/103 153/153/103 152/152/104
f 155/155/105 153/153/103 154/154/103
f 156/156/105 155/155/105 154/154/103
f 157/157/106 155/155/105 156/156/105
f 158/158/106 157/157/106 156/156/105
f 159/159/107 157/157/106 158/158/106
f 160/160/107 159/159/107 158/158/106
f 161/161/108 159/159/107 160/160/107
f 162/162/108 161/161/108 160/160/107
f 163/163/109 161/161/108 162/162/108
f 164/164/109 163/163/109 162/162/108
f 165/165/110 163/163/109 164/164/109
f 166/166/110 165/165/110 164/164/109
f 167/167/89 165/165/110 166/166/110
f 168/168/89 167/167/89 166/166/110
