# Blender 3.3.1
# www.blender.org
mtllib Vivillon.mtl
o vivillon_fx_mesh
v -0.000006 0.258818 0.000006
v -0.375000 0.258818 -0.100486
v -0.375000 -0.258818 -0.100486
v -0.000006 -0.258818 0.000006
v -0.000006 -0.258818 0.000006
v 0.375000 -0.258818 -0.100486
v 0.375000 0.258818 -0.100486
v -0.000006 0.258818 0.000006
vn 0.2588 0.0010 -0.9659
vn 0.2588 0.0011 -0.9659
vn -0.2588 0.0010 -0.9659
vt 0.079263 0.999900
vt 0.828869 0.999900
vt 0.828869 0.000100
vt 0.079263 0.000100
vt 0.079263 0.000100
vt 0.828869 0.000100
vt 0.828869 0.999900
vt 0.079263 0.999900
s 0
usemtl Material.005
f 3/3/1 2/2/1 1/1/1
f 4/4/2 3/3/2 1/1/2
f 7/7/3 6/6/3 5/5/3
f 8/8/3 7/7/3 5/5/3
