g pokestop_ia_arc_top
v -57.351875 120.904686 -8.279277
v -45.194866 119.55427 -8.279277
v -45.194866 119.55427 8.279279
v -57.351875 120.904686 8.279279
v -27.577492 115.533226 8.279279
v -27.577492 115.533226 -8.279277
v -10.756194 108.93135 8.279279
v -10.756194 108.93135 -8.279277
v 4.893267 99.89613 8.279279
v 4.893267 99.89613 -8.279277
v 19.021309 88.629395 8.279279
v 19.021309 88.629395 -8.279277
v 31.312332 75.38283 8.279279
v 31.312332 75.38283 -8.279277
v 41.491768 60.452328 8.279279
v 41.491768 60.452328 -8.279277
v 49.33224 44.17142 8.279279
v 49.33224 44.17142 -8.279277
v 54.658592 26.903801 8.279279
v 54.658592 26.903801 -8.279277
v 57.35185 9.035195 8.279279
v 57.35185 9.035195 -8.279277
v 57.351837 -9.035244 8.279279
v 57.351837 -9.035244 -8.279277
v 54.65858 -26.903849 8.279279
v 54.65858 -26.903849 -8.279277
v 49.332222 -44.171474 8.279279
v 49.332222 -44.171474 -8.279277
v 41.49175 -60.452374 8.279279
v 41.49175 -60.452374 -8.279277
v 31.312304 -75.38287 8.279279
v 31.312304 -75.38287 -8.279277
v 19.02128 -88.62943 8.279279
v 19.02128 -88.62943 -8.279277
v 4.893238 -99.89617 8.279279
v 4.893238 -99.89617 -8.279277
v -10.756218 -108.93138 8.279279
v -10.756218 -108.93138 -8.279277
v -27.577517 -115.53326 8.279279
v -27.577517 -115.53326 -8.279277
v -45.194897 -119.5543 8.279279
v -45.194897 -119.5543 -8.279277
v -57.351906 -120.9047 8.279279
v -57.351906 -120.9047 -8.279277
v -57.351875 120.904686 8.279279
v -45.194866 119.55427 8.279279
v -54.0671 60.690838 8.279279
v -57.351875 61.376358 8.279279
v -45.12377 58.649582 8.279279
v -27.577492 115.533226 8.279279
v -36.58456 55.298195 8.279279
v -10.756194 108.93135 8.279279
v -28.640228 50.711533 8.279279
v 4.893267 99.89613 8.279279
v -21.468233 44.992054 8.279279
v 19.021309 88.629395 8.279279
v -15.228789 38.267532 8.279279
v 31.312332 75.38283 8.279279
v -10.061271 30.688175 8.279279
v 41.491768 60.452328 8.279279
v -6.081116 22.423294 8.279279
v 49.33224 44.17142 8.279279
v -3.377231 13.657513 8.279279
v 54.658592 26.903801 8.279279
v -2.0100179 4.5866466 8.279279
v 57.35185 9.035195 8.279279
v -2.0100226 -4.5866785 8.279279
v 57.351837 -9.035244 8.279279
v -3.3772357 -13.657544 8.279279
v 54.65858 -26.903849 8.279279
v -6.081121 -22.423323 8.279279
v 49.332222 -44.171474 8.279279
v -10.06128 -30.688206 8.279279
v 41.49175 -60.452374 8.279279
v -15.228804 -38.267563 8.279279
v 31.312304 -75.38287 8.279279
v -21.468248 -44.992085 8.279279
v 19.02128 -88.62943 8.279279
v -28.640244 -50.71156 8.279279
v 4.893238 -99.89617 8.279279
v -36.584576 -55.298218 8.279279
v -10.756218 -108.93138 8.279279
v -45.123787 -58.64961 8.279279
v -27.577517 -115.53326 8.279279
v -54.067116 -60.690865 8.279279
v -45.194897 -119.5543 8.279279
v -57.35189 -61.37639 8.279279
v -57.351906 -120.9047 8.279279
v -57.351875 61.376358 8.279279
v -54.0671 60.690838 8.279279
v -54.0671 60.690838 -8.279277
v -57.351875 61.376366 -8.279277
v -45.12377 58.649582 -8.279277
v -45.12377 58.649582 8.279279
v -36.58456 55.298195 -8.279277
v -36.58456 55.298195 8.279279
v -28.640228 50.711533 -8.279277
v -28.640228 50.711533 8.279279
v -21.468233 44.992054 -8.279277
v -21.468233 44.992054 8.279279
v -15.228789 38.267532 -8.279277
v -15.228789 38.267532 8.279279
v -10.061271 30.688175 -8.279277
v -10.061271 30.688175 8.279279
v -6.081116 22.423294 -8.279277
v -6.081116 22.423294 8.279279
v -3.377231 13.657513 -8.279277
v -3.377231 13.657513 8.279279
v -2.0100179 4.5866466 -8.279277
v -2.0100179 4.5866466 8.279279
v -2.0100226 -4.5866785 -8.279277
v -2.0100226 -4.5866785 8.279279
v -3.3772357 -13.657544 -8.279277
v -3.3772357 -13.657544 8.279279
v -6.081121 -22.423323 -8.279277
v -6.081121 -22.423323 8.279279
v -10.06128 -30.688206 -8.279277
v -10.06128 -30.688206 8.279279
v -15.228804 -38.267563 -8.279277
v -15.228804 -38.267563 8.279279
v -21.468248 -44.992085 -8.279277
v -21.468248 -44.992085 8.279279
v -28.640244 -50.71156 -8.279277
v -28.640244 -50.71156 8.279279
v -36.584576 -55.298218 -8.279277
v -36.584576 -55.298218 8.279279
v -45.123787 -58.64961 -8.279277
v -45.123787 -58.64961 8.279279
v -54.067116 -60.690865 -8.279277
v -54.067116 -60.690865 8.279279
v -57.35189 -61.376385 -8.279277
v -57.35189 -61.37639 8.279279
v -57.351875 61.376366 -8.279277
v -54.0671 60.690838 -8.279277
v -45.194866 119.55427 -8.279277
v -57.351875 120.904686 -8.279277
v -27.577492 115.533226 -8.279277
v -45.12377 58.649582 -8.279277
v -10.756194 108.93135 -8.279277
v -36.58456 55.298195 -8.279277
v 4.893267 99.89613 -8.279277
v -28.640228 50.711533 -8.279277
v 19.021309 88.629395 -8.279277
v -21.468233 44.992054 -8.279277
v 31.312332 75.38283 -8.279277
v -15.228789 38.267532 -8.279277
v 41.491768 60.452328 -8.279277
v -10.061271 30.688175 -8.279277
v 49.33224 44.17142 -8.279277
v -6.081116 22.423294 -8.279277
v 54.658592 26.903801 -8.279277
v -3.377231 13.657513 -8.279277
v 57.35185 9.035195 -8.279277
v -2.0100179 4.5866466 -8.279277
v 57.351837 -9.035244 -8.279277
v -2.0100226 -4.5866785 -8.279277
v 54.65858 -26.903849 -8.279277
v -3.3772357 -13.657544 -8.279277
v 49.332222 -44.171474 -8.279277
v -6.081121 -22.423323 -8.279277
v 41.49175 -60.452374 -8.279277
v -10.06128 -30.688206 -8.279277
v 31.312304 -75.38287 -8.279277
v -15.228804 -38.267563 -8.279277
v 19.02128 -88.62943 -8.279277
v -21.468248 -44.992085 -8.279277
v 4.893238 -99.89617 -8.279277
v -28.640244 -50.71156 -8.279277
v -10.756218 -108.93138 -8.279277
v -36.584576 -55.298218 -8.279277
v -27.577517 -115.53326 -8.279277
v -45.123787 -58.64961 -8.279277
v -45.194897 -119.5543 -8.279277
v -54.067116 -60.690865 -8.279277
v -57.351906 -120.9047 -8.279277
v -57.35189 -61.376385 -8.279277
v -57.351875 61.376358 8.279279
v -57.351875 61.376366 -8.279277
v -57.351875 120.904686 -8.279277
v -57.351875 120.904686 8.279279
v -57.351906 -120.9047 -8.279277
v -57.35189 -61.376385 -8.279277
v -57.35189 -61.37639 8.279279
v -57.351906 -120.9047 8.279279
vt 0.17510417 0.5162486
vt 0.1787309 0.5488982
vt 0.1787309 0.5488982
vt 0.17510417 0.5162486
vt 0.18953007 0.59621257
vt 0.18953007 0.59621257
vt 0.20726046 0.64138895
vt 0.20726046 0.6413889
vt 0.23152602 0.68341815
vt 0.23152602 0.68341815
vt 0.26178467 0.7213613
vt 0.26178467 0.7213613
vt 0.29736048 0.7543709
vt 0.29736048 0.75437087
vt 0.33745876 0.78170943
vt 0.33745876 0.78170943
vt 0.3811838 0.8027663
vt 0.3811838 0.8027663
vt 0.4275588 0.8170711
vt 0.4275588 0.8170711
vt 0.47554788 0.82430434
vt 0.47554788 0.8243043
vt 0.524079 0.82430434
vt 0.52407897 0.8243043
vt 0.57206804 0.81707114
vt 0.57206804 0.8170711
vt 0.6184431 0.8027663
vt 0.6184431 0.8027663
vt 0.6621681 0.7817095
vt 0.6621681 0.78170943
vt 0.70226645 0.7543709
vt 0.70226645 0.7543709
vt 0.7378422 0.7213614
vt 0.7378422 0.7213614
vt 0.7681009 0.6834183
vt 0.7681009 0.6834182
vt 0.79236645 0.6413891
vt 0.79236645 0.6413891
vt 0.81009686 0.59621274
vt 0.81009686 0.59621274
vt 0.820896 0.5488984
vt 0.820896 0.54889834
vt 0.82452285 0.51624876
vt 0.82452285 0.5162487
vt 0.17510417 0.5162486
vt 0.1787309 0.5488982
vt 0.33681828 0.5250705
vt 0.3349772 0.51624864
vt 0.34230042 0.54908925
vt 0.18953007 0.59621257
vt 0.3513011 0.5720227
vt 0.20726046 0.64138895
vt 0.36361933 0.5933585
vt 0.23152602 0.68341815
vt 0.37897992 0.61262006
vt 0.26178467 0.7213613
vt 0.3970397 0.6293771
vt 0.29736048 0.7543709
vt 0.41739532 0.64325535
vt 0.33745876 0.78170943
vt 0.439592 0.65394473
vt 0.3811838 0.8027663
vt 0.46313393 0.6612064
vt 0.4275588 0.8170711
vt 0.48749524 0.6648783
vt 0.47554788 0.82430434
vt 0.5121317 0.6648783
vt 0.524079 0.82430434
vt 0.536493 0.6612065
vt 0.57206804 0.81707114
vt 0.56003493 0.65394473
vt 0.6184431 0.8027663
vt 0.58223164 0.64325535
vt 0.6621681 0.7817095
vt 0.6025872 0.6293771
vt 0.70226645 0.7543709
vt 0.6206471 0.6126201
vt 0.7378422 0.7213614
vt 0.63600767 0.5933585
vt 0.7681009 0.6834183
vt 0.64832586 0.57202274
vt 0.79236645 0.6413891
vt 0.6573266 0.5490893
vt 0.81009686 0.59621274
vt 0.6628087 0.52507055
vt 0.820896 0.5488984
vt 0.6646498 0.51624876
vt 0.82452285 0.51624876
vt 0.3349772 0.51624864
vt 0.33681828 0.5250705
vt 0.33681828 0.5250704
vt 0.3349772 0.51624864
vt 0.34230042 0.5490892
vt 0.34230042 0.54908925
vt 0.3513011 0.5720227
vt 0.3513011 0.5720227
vt 0.36361933 0.59335846
vt 0.36361933 0.5933585
vt 0.37897992 0.61262006
vt 0.37897992 0.61262006
vt 0.3970397 0.6293771
vt 0.3970397 0.6293771
vt 0.41739532 0.64325535
vt 0.41739532 0.64325535
vt 0.439592 0.65394473
vt 0.439592 0.65394473
vt 0.46313393 0.6612064
vt 0.46313393 0.6612064
vt 0.48749524 0.6648783
vt 0.48749524 0.6648783
vt 0.5121317 0.6648783
vt 0.5121317 0.6648783
vt 0.536493 0.6612064
vt 0.536493 0.6612065
vt 0.56003493 0.65394473
vt 0.56003493 0.65394473
vt 0.58223164 0.64325535
vt 0.58223164 0.64325535
vt 0.6025872 0.6293771
vt 0.6025872 0.6293771
vt 0.620647 0.6126201
vt 0.6206471 0.6126201
vt 0.63600767 0.5933585
vt 0.63600767 0.5933585
vt 0.64832586 0.57202274
vt 0.64832586 0.57202274
vt 0.6573266 0.5490893
vt 0.6573266 0.5490893
vt 0.6628087 0.5250705
vt 0.6628087 0.52507055
vt 0.6646498 0.5162487
vt 0.6646498 0.51624876
vt 0.3349772 0.51624864
vt 0.33681828 0.5250704
vt 0.1787309 0.5488982
vt 0.17510417 0.5162486
vt 0.18953007 0.59621257
vt 0.34230042 0.5490892
vt 0.20726046 0.6413889
vt 0.3513011 0.5720227
vt 0.23152602 0.68341815
vt 0.36361933 0.59335846
vt 0.26178467 0.7213613
vt 0.37897992 0.61262006
vt 0.29736048 0.75437087
vt 0.3970397 0.6293771
vt 0.33745876 0.78170943
vt 0.41739532 0.64325535
vt 0.3811838 0.8027663
vt 0.439592 0.65394473
vt 0.4275588 0.8170711
vt 0.46313393 0.6612064
vt 0.47554788 0.8243043
vt 0.48749524 0.6648783
vt 0.52407897 0.8243043
vt 0.5121317 0.6648783
vt 0.57206804 0.8170711
vt 0.536493 0.6612064
vt 0.6184431 0.8027663
vt 0.56003493 0.65394473
vt 0.6621681 0.78170943
vt 0.58223164 0.64325535
vt 0.70226645 0.7543709
vt 0.6025872 0.6293771
vt 0.7378422 0.7213614
vt 0.620647 0.6126201
vt 0.7681009 0.6834182
vt 0.63600767 0.5933585
vt 0.79236645 0.6413891
vt 0.64832586 0.57202274
vt 0.81009686 0.59621274
vt 0.6573266 0.5490893
vt 0.820896 0.54889834
vt 0.6628087 0.5250705
vt 0.82452285 0.5162487
vt 0.6646498 0.5162487
vt 0.3349772 0.51624864
vt 0.3349772 0.51624864
vt 0.17510417 0.5162486
vt 0.17510417 0.5162486
vt 0.82452285 0.5162487
vt 0.6646498 0.5162487
vt 0.6646498 0.51624876
vt 0.82452285 0.51624876
vn 0.11040187 0.993887 0
vn 0.1667309 0.9860024 0
vn 0.1667309 0.9860024 0
vn 0.11040187 0.993887 0
vn 0.29475504 0.95557284 0
vn 0.29475504 0.95557284 0
vn 0.43388382 0.9009688 0
vn 0.43388382 0.9009688 0
vn 0.5633201 0.82623875 0
vn 0.5633201 0.82623875 0
vn 0.6801727 0.73305196 0
vn 0.6801727 0.73305196 0
vn 0.78183156 0.62348974 0
vn 0.78183156 0.62348974 0
vn 0.86602545 0.4999999 0
vn 0.86602545 0.4999999 0
vn 0.9308738 0.36534095 0
vn 0.9308738 0.36534095 0
vn 0.97492796 0.22252075 0
vn 0.97492796 0.22252075 0
vn 0.9972038 0.07472976 0
vn 0.9972038 0.07472976 0
vn 0.9972038 -0.074730285 0
vn 0.9972038 -0.074730285 0
vn 0.9749279 -0.22252096 0
vn 0.9749279 -0.22252096 0
vn 0.9308737 -0.36534113 0
vn 0.9308737 -0.36534113 0
vn 0.86602527 -0.5000002 0
vn 0.86602527 -0.5000002 0
vn 0.7818312 -0.6234901 0
vn 0.7818312 -0.6234901 0
vn 0.68017256 -0.733052 0
vn 0.68017256 -0.733052 0
vn 0.56332 -0.8262389 0
vn 0.56332 -0.8262389 0
vn 0.4338837 -0.9009689 0
vn 0.4338837 -0.9009689 0
vn 0.294755 -0.95557284 0
vn 0.294755 -0.95557284 0
vn 0.1667305 -0.9860025 0
vn 0.1667305 -0.9860025 0
vn 0.11040111 -0.9938871 0
vn 0.11040111 -0.9938871 0
vn -0 0 1
vn -0 0 1
vn -0 0 1
vn -0 0 1
vn -0 0 1
vn -0 0 1
vn -0 0 1
vn -0 0 1
vn -0 0 1
vn -0 0 1
vn -0 0 1
vn -0 0 1
vn -0 0 1
vn -0 0 1
vn -0 0 1
vn -0 0 1
vn -0 0 1
vn -0 0 1
vn -0 0 1
vn -0 0 1
vn -0 0 1
vn -0 0 1
vn -0 0 1
vn -0 0 1
vn -0 0 1
vn -0 0 1
vn -0 0 1
vn -0 0 1
vn -0 0 1
vn -0 0 1
vn -0 0 1
vn -0 0 1
vn -0 0 1
vn -0 0 1
vn -0 0 1
vn -0 0 1
vn -0 0 1
vn -0 0 1
vn -0 0 1
vn -0 0 1
vn -0 0 1
vn -0 0 1
vn -0 0 1
vn -0 0 1
vn -0.2042954 -0.9789093 0
vn -0.21341744 -0.9769611 0
vn -0.21341744 -0.9769611 0
vn -0.2042954 -0.9789093 0
vn -0.294755 -0.95557284 0
vn -0.294755 -0.95557284 0
vn -0.43388358 -0.9009689 0
vn -0.43388358 -0.9009689 0
vn -0.5633201 -0.82623875 0
vn -0.5633201 -0.82623875 0
vn -0.68017274 -0.73305184 0
vn -0.68017274 -0.73305184 0
vn -0.78183144 -0.6234898 0
vn -0.78183144 -0.6234898 0
vn -0.86602545 -0.49999985 0
vn -0.86602545 -0.49999985 0
vn -0.9308738 -0.3653409 0
vn -0.9308738 -0.3653409 0
vn -0.9749279 -0.22252093 0
vn -0.9749279 -0.22252093 0
vn -0.9972038 -0.074729845 0
vn -0.9972038 -0.074729845 0
vn -0.9972038 0.07473035 0
vn -0.9972038 0.07473035 0
vn -0.9749279 0.22252099 0
vn -0.9749279 0.22252099 0
vn -0.9308737 0.36534107 0
vn -0.9308737 0.36534107 0
vn -0.8660252 0.50000036 0
vn -0.8660252 0.50000036 0
vn -0.78183126 0.6234901 0
vn -0.78183126 0.6234901 0
vn -0.68017274 0.73305184 0
vn -0.68017274 0.73305184 0
vn -0.5633199 0.8262389 0
vn -0.5633199 0.8262389 0
vn -0.43388334 0.9009691 0
vn -0.43388334 0.9009691 0
vn -0.294755 0.95557284 0
vn -0.294755 0.95557284 0
vn -0.21341744 0.9769611 0
vn -0.21341744 0.9769611 0
vn -0.2042954 0.9789093 0
vn -0.2042954 0.9789093 0
vn -0 0 -1
vn -0 0 -1
vn -0 0 -1
vn -0 0 -1
vn -0 0 -1
vn -0 0 -1
vn -0 0 -1
vn -0 0 -1
vn -0 0 -1
vn -0 0 -1
vn -0 0 -1
vn -0 0 -1
vn -0 0 -1
vn -0 0 -1
vn -0 0 -1
vn -0 0 -1
vn -0 0 -1
vn -0 0 -1
vn -0 0 -1
vn -0 0 -1
vn -0 0 -1
vn -0 0 -1
vn -0 0 -1
vn -0 0 -1
vn -0 0 -1
vn -0 0 -1
vn -0 0 -1
vn -0 0 -1
vn -0 0 -1
vn -0 0 -1
vn -0 0 -1
vn -0 0 -1
vn -0 0 -1
vn -0 0 -1
vn -0 0 -1
vn -0 0 -1
vn -0 0 -1
vn -0 0 -1
vn -0 0 -1
vn -0 0 -1
vn -0 0 -1
vn -0 0 -1
vn -0 0 -1
vn -0 0 -1
vn -1 0 0
vn -1 0 0
vn -1 0 0
vn -1 0 0
vn -1 0 0
vn -1 0 0
vn -1 0 0
vn -1 0 0
g pokestop_ia_arc_top_0
f 3/3/3 2/2/2 1/1/1
f 4/4/4 3/3/3 1/1/1
f 3/3/3 5/5/5 2/2/2
f 5/5/5 6/6/6 2/2/2
f 5/5/5 7/7/7 6/6/6
f 7/7/7 8/8/8 6/6/6
f 7/7/7 9/9/9 8/8/8
f 9/9/9 10/10/10 8/8/8
f 9/9/9 11/11/11 10/10/10
f 11/11/11 12/12/12 10/10/10
f 11/11/11 13/13/13 12/12/12
f 13/13/13 14/14/14 12/12/12
f 13/13/13 15/15/15 14/14/14
f 15/15/15 16/16/16 14/14/14
f 15/15/15 17/17/17 16/16/16
f 17/17/17 18/18/18 16/16/16
f 17/17/17 19/19/19 18/18/18
f 19/19/19 20/20/20 18/18/18
f 19/19/19 21/21/21 20/20/20
f 21/21/21 22/22/22 20/20/20
f 21/21/21 23/23/23 22/22/22
f 23/23/23 24/24/24 22/22/22
f 23/23/23 25/25/25 24/24/24
f 25/25/25 26/26/26 24/24/24
f 25/25/25 27/27/27 26/26/26
f 27/27/27 28/28/28 26/26/26
f 27/27/27 29/29/29 28/28/28
f 29/29/29 30/30/30 28/28/28
f 29/29/29 31/31/31 30/30/30
f 31/31/31 32/32/32 30/30/30
f 31/31/31 33/33/33 32/32/32
f 33/33/33 34/34/34 32/32/32
f 33/33/33 35/35/35 34/34/34
f 35/35/35 36/36/36 34/34/34
f 35/35/35 37/37/37 36/36/36
f 37/37/37 38/38/38 36/36/36
f 37/37/37 39/39/39 38/38/38
f 39/39/39 40/40/40 38/38/38
f 39/39/39 41/41/41 40/40/40
f 41/41/41 42/42/42 40/40/40
f 41/41/41 43/43/43 42/42/42
f 43/43/43 44/44/44 42/42/42
f 47/47/47 46/46/46 45/45/45
f 48/48/48 47/47/47 45/45/45
f 47/47/47 49/49/49 46/46/46
f 49/49/49 50/50/50 46/46/46
f 49/49/49 51/51/51 50/50/50
f 51/51/51 52/52/52 50/50/50
f 51/51/51 53/53/53 52/52/52
f 53/53/53 54/54/54 52/52/52
f 53/53/53 55/55/55 54/54/54
f 55/55/55 56/56/56 54/54/54
f 55/55/55 57/57/57 56/56/56
f 57/57/57 58/58/58 56/56/56
f 57/57/57 59/59/59 58/58/58
f 59/59/59 60/60/60 58/58/58
f 59/59/59 61/61/61 60/60/60
f 61/61/61 62/62/62 60/60/60
f 61/61/61 63/63/63 62/62/62
f 63/63/63 64/64/64 62/62/62
f 63/63/63 65/65/65 64/64/64
f 65/65/65 66/66/66 64/64/64
f 65/65/65 67/67/67 66/66/66
f 67/67/67 68/68/68 66/66/66
f 67/67/67 69/69/69 68/68/68
f 69/69/69 70/70/70 68/68/68
f 69/69/69 71/71/71 70/70/70
f 71/71/71 72/72/72 70/70/70
f 71/71/71 73/73/73 72/72/72
f 73/73/73 74/74/74 72/72/72
f 73/73/73 75/75/75 74/74/74
f 75/75/75 76/76/76 74/74/74
f 75/75/75 77/77/77 76/76/76
f 77/77/77 78/78/78 76/76/76
f 77/77/77 79/79/79 78/78/78
f 79/79/79 80/80/80 78/78/78
f 79/79/79 81/81/81 80/80/80
f 81/81/81 82/82/82 80/80/80
f 81/81/81 83/83/83 82/82/82
f 83/83/83 84/84/84 82/82/82
f 83/83/83 85/85/85 84/84/84
f 85/85/85 86/86/86 84/84/84
f 85/85/85 87/87/87 86/86/86
f 87/87/87 88/88/88 86/86/86
f 91/91/91 90/90/90 89/89/89
f 92/92/92 91/91/91 89/89/89
f 91/91/91 93/93/93 90/90/90
f 93/93/93 94/94/94 90/90/90
f 93/93/93 95/95/95 94/94/94
f 95/95/95 96/96/96 94/94/94
f 95/95/95 97/97/97 96/96/96
f 97/97/97 98/98/98 96/96/96
f 97/97/97 99/99/99 98/98/98
f 99/99/99 100/100/100 98/98/98
f 99/99/99 101/101/101 100/100/100
f 101/101/101 102/102/102 100/100/100
f 101/101/101 103/103/103 102/102/102
f 103/103/103 104/104/104 102/102/102
f 103/103/103 105/105/105 104/104/104
f 105/105/105 106/106/106 104/104/104
f 105/105/105 107/107/107 106/106/106
f 107/107/107 108/108/108 106/106/106
f 107/107/107 109/109/109 108/108/108
f 109/109/109 110/110/110 108/108/108
f 109/109/109 111/111/111 110/110/110
f 111/111/111 112/112/112 110/110/110
f 111/111/111 113/113/113 112/112/112
f 113/113/113 114/114/114 112/112/112
f 113/113/113 115/115/115 114/114/114
f 115/115/115 116/116/116 114/114/114
f 115/115/115 117/117/117 116/116/116
f 117/117/117 118/118/118 116/116/116
f 117/117/117 119/119/119 118/118/118
f 119/119/119 120/120/120 118/118/118
f 119/119/119 121/121/121 120/120/120
f 121/121/121 122/122/122 120/120/120
f 121/121/121 123/123/123 122/122/122
f 123/123/123 124/124/124 122/122/122
f 123/123/123 125/125/125 124/124/124
f 125/125/125 126/126/126 124/124/124
f 125/125/125 127/127/127 126/126/126
f 127/127/127 128/128/128 126/126/126
f 127/127/127 129/129/129 128/128/128
f 129/129/129 130/130/130 128/128/128
f 129/129/129 131/131/131 130/130/130
f 131/131/131 132/132/132 130/130/130
f 135/135/135 134/134/134 133/133/133
f 136/136/136 135/135/135 133/133/133
f 135/135/135 137/137/137 134/134/134
f 137/137/137 138/138/138 134/134/134
f 137/137/137 139/139/139 138/138/138
f 139/139/139 140/140/140 138/138/138
f 139/139/139 141/141/141 140/140/140
f 141/141/141 142/142/142 140/140/140
f 141/141/141 143/143/143 142/142/142
f 143/143/143 144/144/144 142/142/142
f 143/143/143 145/145/145 144/144/144
f 145/145/145 146/146/146 144/144/144
f 145/145/145 147/147/147 146/146/146
f 147/147/147 148/148/148 146/146/146
f 147/147/147 149/149/149 148/148/148
f 149/149/149 150/150/150 148/148/148
f 149/149/149 151/151/151 150/150/150
f 151/151/151 152/152/152 150/150/150
f 151/151/151 153/153/153 152/152/152
f 153/153/153 154/154/154 152/152/152
f 153/153/153 155/155/155 154/154/154
f 155/155/155 156/156/156 154/154/154
f 155/155/155 157/157/157 156/156/156
f 157/157/157 158/158/158 156/156/156
f 157/157/157 159/159/159 158/158/158
f 159/159/159 160/160/160 158/158/158
f 159/159/159 161/161/161 160/160/160
f 161/161/161 162/162/162 160/160/160
f 161/161/161 163/163/163 162/162/162
f 163/163/163 164/164/164 162/162/162
f 163/163/163 165/165/165 164/164/164
f 165/165/165 166/166/166 164/164/164
f 165/165/165 167/167/167 166/166/166
f 167/167/167 168/168/168 166/166/166
f 167/167/167 169/169/169 168/168/168
f 169/169/169 170/170/170 168/168/168
f 169/169/169 171/171/171 170/170/170
f 171/171/171 172/172/172 170/170/170
f 171/171/171 173/173/173 172/172/172
f 173/173/173 174/174/174 172/172/172
f 173/173/173 175/175/175 174/174/174
f 175/175/175 176/176/176 174/174/174
f 179/179/179 178/178/178 177/177/177
f 180/180/180 179/179/179 177/177/177
f 183/183/183 182/182/182 181/181/181
f 184/184/184 183/183/183 181/181/181
