g PokestopFar
v 0.36175552 0.051974453 -0.117541626
v -1.0605189E-07 0.05197446 5.7272698E-09
v 0.30772752 0.05197446 -0.22357738
v 0.22357711 0.051974457 -0.30772778
v 0.38037202 0.05197446 -1.0914192E-07
v 0.45958737 0.051974457 -0.1493291
v 0.39094833 0.051974457 -0.28404087
v 0.28404042 0.051974457 -0.39094853
v 0.11754128 0.051974457 -0.36175573
v 0.14932875 0.05197446 -0.45958754
v -2.2092117E-07 0.051974457 -0.38037238
v -2.6517742E-07 0.051974457 -0.48323882
v -0.117541745 0.051974457 -0.36175558
v -0.14932929 0.05197446 -0.4595874
v -0.22357744 0.051974457 -0.30772766
v -0.28404096 0.051974457 -0.39094827
v -0.30772793 0.05197446 -0.22357714
v -0.3909486 0.051974457 -0.28404048
v -0.36175567 0.051974453 -0.117541395
v -0.45958754 0.051974457 -0.14932884
v -0.38037238 0.05197446 1.2059652E-07
v -0.48323882 0.05197446 1.5166131E-07
v 0.22357711 0.051974457 -0.30772778
v -1.0605189E-07 0.05197446 5.7272698E-09
v 0.11754128 0.051974457 -0.36175573
v -2.2092117E-07 0.051974457 -0.38037238
v -0.117541745 0.051974457 -0.36175558
v -0.22357744 0.051974457 -0.30772766
v -0.30772793 0.05197446 -0.22357714
v -0.36175567 0.051974453 -0.117541395
v -0.38037238 0.05197446 1.2059652E-07
v -0.36175567 0.051974457 0.1175416
v -0.30772772 0.05197446 0.22357728
v -0.22357722 0.051974453 0.3077277
v -0.117541485 0.051974457 0.3617555
v -2.5186335E-09 0.051974457 0.38037223
v 0.11754148 0.051974457 0.36175543
v -0.48323882 0.05197446 1.5166131E-07
v -0.45958737 0.051974457 0.14932911
v -0.39094833 0.051974457 0.28404075
v -0.2840406 0.051974457 0.3909484
v -0.14932895 0.051974457 0.45958742
v 4.251358E-08 0.051974457 0.48323864
v 0.14932898 0.051974457 0.45958713
v 0.2235771 0.051974453 0.30772752
v 0.28404054 0.051974457 0.3909483
v 0.3077275 0.05197446 0.22357707
v -1.0605189E-07 0.05197446 5.7272698E-09
v 0.3617553 0.051974457 0.11754135
v 0.38037202 0.05197446 -1.0914192E-07
v 0.39094827 0.051974457 0.28404042
v 0.45958728 0.051974457 0.14932881
v 0.48323855 0.05197446 -4.5538634E-08
v 0.11754148 0.051974457 0.36175543
v -1.0605189E-07 0.05197446 5.7272698E-09
v 0.2235771 0.051974453 0.30772752
v 0.48323855 0.05197446 -4.5538634E-08
v 0.014475965 0.049260803 -0.025073098
v 0.011042137 2.5497694 -0.019125517
v -0.01104213 2.5497694 -0.019125517
v -0.014475966 0.049260803 -0.025073083
v -0.014475966 0.049260803 -0.025073083
v -0.01104213 2.5497694 -0.019125517
v -0.02208426 2.5497694 5.955206E-09
v -0.02895193 0.049260803 7.005811E-09
v -0.02895193 0.049260803 7.005811E-09
v -0.02208426 2.5497694 5.955206E-09
v -0.011042128 2.5497694 0.019125529
v -0.014475956 0.049260803 0.025073098
v -0.014475956 0.049260803 0.025073098
v -0.011042128 2.5497694 0.019125529
v 0.011042141 2.5497694 0.019125517
v 0.014475974 0.049260803 0.02507309
v 0.014475974 0.049260803 0.02507309
v 0.011042141 2.5497694 0.019125517
v 0.022084268 2.5497694 -4.0925086E-09
v 0.028951941 0.049260803 -6.16651E-09
v 0.028951941 0.049260803 -6.16651E-09
v 0.022084268 2.5497694 -4.0925086E-09
v 0.011042137 2.5497694 -0.019125517
v 0.014475965 0.049260803 -0.025073098
v -0.6535952 2.4909925 0.65359557
v -0.7776533 2.6411455 0.77765375
v 0.7776539 2.6411455 0.7776533
v 0.6535953 2.4909925 0.65359503
v -0.7776533 2.6411455 0.77765375
v -0.6535952 2.7912986 0.65359557
v 0.6535953 2.7912986 0.65359503
v 0.7776539 2.6411455 0.7776533
v -0.4938014 2.7912986 0.49380168
v -0.49380162 2.7912986 -0.49380127
v 0.4938014 2.7912986 -0.49380156
v 0.49380162 2.7912986 0.4938014
v -0.6535952 2.7912986 0.65359557
v 0.6535953 2.7912986 0.65359503
v 0.6535952 2.7912986 -0.65359545
v -0.6535953 2.7912986 -0.6535949
v -0.6535953 2.7912986 -0.6535949
v -0.7776539 2.6411455 -0.77765316
v 0.7776533 2.6411455 -0.77765363
v 0.6535952 2.7912986 -0.65359545
v -0.7776539 2.6411455 -0.77765316
v -0.6535953 2.4909925 -0.6535949
v 0.6535952 2.4909925 -0.65359545
v 0.7776533 2.6411455 -0.77765363
v -0.6535953 2.4909925 -0.6535949
v -0.6535952 2.4909925 0.65359557
v 0.6535953 2.4909925 0.65359503
v 0.6535952 2.4909925 -0.65359545
v 0.6535953 2.4909925 0.65359503
v 0.7776539 2.6411455 0.7776533
v 0.7776533 2.6411455 -0.77765363
v 0.6535952 2.4909925 -0.65359545
v 0.7776539 2.6411455 0.7776533
v 0.6535953 2.7912986 0.65359503
v 0.6535952 2.7912986 -0.65359545
v 0.7776533 2.6411455 -0.77765363
v -0.6535953 2.4909925 -0.6535949
v -0.7776539 2.6411455 -0.77765316
v -0.7776533 2.6411455 0.77765375
v -0.6535952 2.4909925 0.65359557
v -0.7776539 2.6411455 -0.77765316
v -0.6535953 2.7912986 -0.6535949
v -0.6535952 2.7912986 0.65359557
v -0.7776533 2.6411455 0.77765375
v 0.6535952 2.7912986 -0.65359545
v 0.4938014 2.7912986 -0.49380156
v -0.49380162 2.7912986 -0.49380127
v -0.6535953 2.7912986 -0.6535949
v 0.86431456 5.4142065 0.49612164
v -0.009262204 6.1008697 1.006874
v -0.008526559 6.8313293 0.02609033
v 0.86504996 6.1446667 -0.48466194
v -0.009262204 6.1008697 1.006874
v -0.86504996 5.400561 0.4846619
v -0.86431444 6.1310215 -0.4961217
v -0.008526559 6.8313293 0.02609033
v -0.86504996 5.400561 0.4846619
v 0.008526465 4.7138987 -0.026090382
v 0.009262132 5.444359 -1.0068738
v -0.86431444 6.1310215 -0.4961217
v 0.008526465 4.7138987 -0.026090382
v 0.86431456 5.4142065 0.49612164
v 0.86504996 6.1446667 -0.48466194
v 0.009262132 5.444359 -1.0068738
v 0.86504996 6.1446667 -0.48466194
v -0.008526559 6.8313293 0.02609033
v -0.86431444 6.1310215 -0.4961217
v 0.009262132 5.444359 -1.0068738
v 0.008526465 4.7138987 -0.026090382
v -0.86504996 5.400561 0.4846619
v -0.009262204 6.1008697 1.006874
v 0.86431456 5.4142065 0.49612164
vt 0.27091333 0.026143564
vt 0.20586176 0.0261436
vt 0.2611979 0.026143564
vt 0.24606583 0.026143564
vt 0.27426097 0.026143564
vt 0.28963467 0.0034125093
vt 0.27729186 0.0034125093
vt 0.25806752 0.0034125093
vt 0.2269983 0.0261436
vt 0.23384337 0.0034125447
vt 0.20586176 0.0261436
vt 0.2069908 0.0034125447
vt 0.18472521 0.0261436
vt 0.18013814 0.0034125447
vt 0.16565762 0.0261436
vt 0.15591401 0.0034125447
vt 0.15052551 0.0261436
vt 0.1366897 0.0034125447
vt 0.14081013 0.0261436
vt 0.12434685 0.0034125447
vt 0.13746242 0.0261436
vt 0.12009384 0.0034125447
vt 0.24606583 0.026143564
vt 0.20586176 0.0261436
vt 0.2269983 0.0261436
vt 0.20586176 0.0261436
vt 0.18472521 0.0261436
vt 0.16565762 0.0261436
vt 0.15052551 0.0261436
vt 0.14081013 0.0261436
vt 0.13746242 0.0261436
vt 0.14081013 0.0261436
vt 0.15052557 0.0261436
vt 0.16565762 0.0261436
vt 0.18472521 0.0261436
vt 0.20586176 0.0261436
vt 0.22699824 0.0261436
vt 0.12009384 0.0034125447
vt 0.12434685 0.0034125447
vt 0.1366897 0.0034125447
vt 0.15591401 0.0034125447
vt 0.18013814 0.0034125447
vt 0.2069908 0.0034125447
vt 0.23384337 0.0034125447
vt 0.24606583 0.026143564
vt 0.25806746 0.0034125093
vt 0.2611979 0.026143564
vt 0.20586176 0.0261436
vt 0.27091327 0.026143564
vt 0.27426097 0.026143564
vt 0.2772918 0.0034125093
vt 0.28963462 0.0034125093
vt 0.29388765 0.0034125093
vt 0.22699824 0.0261436
vt 0.20586176 0.0261436
vt 0.24606583 0.026143564
vt 0.29388765 0.0034125093
vt 0.20846485 0.025655603
vt 0.20980449 0.45669279
vt 0.20583324 0.45669279
vt 0.20325866 0.025655603
vt 0.20325866 0.025655603
vt 0.20583324 0.45669279
vt 0.2038476 0.45669279
vt 0.20065556 0.025655603
vt 0.20065556 0.025655603
vt 0.2038476 0.45669279
vt 0.20583324 0.45669279
vt 0.20325866 0.025655603
vt 0.20325866 0.025655603
vt 0.20583324 0.45669279
vt 0.20980449 0.45669279
vt 0.20846485 0.025655603
vt 0.20846485 0.025655603
vt 0.20980449 0.45669279
vt 0.21179006 0.45669279
vt 0.21106794 0.025655603
vt 0.21106794 0.025655603
vt 0.21179006 0.45669279
vt 0.20980449 0.45669279
vt 0.20846485 0.025655603
vt 0.09028809 0.44612387
vt 0.067979716 0.47312358
vt 0.34765798 0.47312352
vt 0.32534957 0.4461238
vt 0.067979716 0.47312358
vt 0.09028809 0.5001234
vt 0.32534957 0.50012326
vt 0.34765798 0.47312352
vt 0.14839074 0.5980121
vt 0.14820331 0.60075414
vt 0.2658824 0.60076314
vt 0.26610819 0.5980195
vt 0.09028809 0.5001234
vt 0.32534957 0.50012326
vt 0.32534957 0.50012326
vt 0.09028809 0.5001234
vt 0.09028809 0.5001234
vt 0.067979716 0.47312358
vt 0.34765798 0.47312352
vt 0.32534957 0.50012326
vt 0.067979716 0.47312358
vt 0.09028809 0.44612387
vt 0.32534957 0.4461238
vt 0.34765798 0.47312352
vt 0.09028809 0.44612387
vt 0.09028809 0.44612387
vt 0.32534957 0.4461238
vt 0.32534957 0.4461238
vt 0.32534957 0.4461238
vt 0.34765798 0.47312352
vt 0.34765798 0.47312352
vt 0.32534957 0.4461238
vt 0.34765798 0.47312352
vt 0.32534957 0.50012326
vt 0.32534957 0.50012326
vt 0.34765798 0.47312352
vt 0.09028809 0.44612387
vt 0.067979716 0.47312358
vt 0.067979716 0.47312358
vt 0.09028809 0.44612387
vt 0.067979716 0.47312358
vt 0.09028809 0.5001234
vt 0.09028809 0.5001234
vt 0.067979716 0.47312358
vt 0.32534957 0.50012326
vt 0.2658824 0.60076314
vt 0.14820331 0.60075414
vt 0.09028809 0.5001234
vt 0.56144845 0.7787029
vt 0.41223803 0.8799496
vt 0.484642 0.98765427
vt 0.63385236 0.8864075
vt 0.41223803 0.8799496
vt 0.3414563 0.77669096
vt 0.4138602 0.88439554
vt 0.484642 0.98765427
vt 0.3414563 0.77669096
vt 0.4906667 0.6754441
vt 0.56307065 0.78314877
vt 0.4138602 0.88439554
vt 0.4906667 0.6754441
vt 0.56144845 0.7787029
vt 0.63385236 0.8864075
vt 0.56307065 0.78314877
vt 0.63385236 0.8864075
vt 0.484642 0.98765427
vt 0.4138602 0.88439554
vt 0.56307065 0.78314877
vt 0.4906667 0.6754441
vt 0.3414563 0.77669096
vt 0.41223803 0.8799496
vt 0.56144845 0.7787029
vn -0 1 0
vn -0 1 0
vn -0 1 0
vn -0 1 0
vn -0 1 0
vn -0 1 0
vn -0 1 0
vn -0 1 0
vn -0 1 0
vn -0 1 0
vn -0 1 0
vn -0 1 0
vn -0 1 0
vn -0 1 0
vn -0 1 0
vn -0 1 0
vn -0 1 0
vn -0 1 0
vn -0 1 0
vn -0 1 0
vn -0 1 0
vn -0 1 0
vn -0 1 0
vn -0 1 0
vn -0 1 0
vn -0 1 0
vn -0 1 0
vn -0 1 0
vn -0 1 0
vn -0 1 0
vn -0 1 0
vn -0 1 0
vn -0 1 0
vn -0 1 0
vn -0 1 0
vn -0 1 0
vn -0 1 0
vn -0 1 0
vn -0 1 0
vn -0 1 0
vn -0 1 0
vn -0 1 0
vn -0 1 0
vn -0 1 0
vn -0 1 0
vn -0 1 0
vn -0 1 0
vn -0 1 0
vn -0 1 0
vn -0 1 0
vn -0 1 0
vn -0 1 0
vn -0 1 0
vn -0 1 0
vn -0 1 0
vn -0 1 0
vn -0 1 0
vn -0 0.0023785385 -0.9999972
vn -0 0.0023785385 -0.9999972
vn -0 0.0023785385 -0.9999972
vn -0 0.0023785385 -0.9999972
vn -0.8660228 0.0023785387 -0.4999988
vn -0.8660228 0.0023785387 -0.4999988
vn -0.8660228 0.0023785387 -0.4999988
vn -0.8660228 0.0023785387 -0.4999988
vn -0.8660227 0.002378538 0.49999896
vn -0.8660227 0.002378538 0.49999896
vn -0.8660227 0.002378538 0.49999896
vn -0.8660227 0.002378538 0.49999896
vn -0 0.0023785376 0.9999972
vn -0 0.0023785376 0.9999972
vn -0 0.0023785376 0.9999972
vn -0 0.0023785376 0.9999972
vn 0.8660228 0.0023785396 0.49999875
vn 0.8660228 0.0023785396 0.49999875
vn 0.8660228 0.0023785396 0.49999875
vn 0.8660228 0.0023785396 0.49999875
vn 0.8660227 0.00237854 -0.49999905
vn 0.8660227 0.00237854 -0.49999905
vn 0.8660227 0.00237854 -0.49999905
vn 0.8660227 0.00237854 -0.49999905
vn -0 -0.636939 0.7709142
vn -0 -0.636939 0.7709142
vn -0 -0.636939 0.7709142
vn -0 -0.636939 0.7709142
vn -0 0.63693833 0.77091473
vn -0 0.63693833 0.77091473
vn -0 0.63693833 0.77091473
vn -0 0.63693833 0.77091473
vn -0 1 0
vn -0 1 0
vn -0 1 0
vn -0 1 0
vn -0 1 0
vn -0 1 0
vn -0 1 0
vn -0 1 0
vn -0 0.63693833 -0.77091473
vn -0 0.63693833 -0.77091473
vn -0 0.63693833 -0.77091473
vn -0 0.63693833 -0.77091473
vn -0 -0.636939 -0.7709142
vn -0 -0.636939 -0.7709142
vn -0 -0.636939 -0.7709142
vn -0 -0.636939 -0.7709142
vn -0 -1 0
vn -0 -1 0
vn -0 -1 0
vn -0 -1 0
vn 0.77091396 -0.63693935 0
vn 0.77091396 -0.63693935 0
vn 0.77091396 -0.63693935 0
vn 0.77091396 -0.63693935 0
vn 0.77091444 0.6369387 0
vn 0.77091444 0.6369387 0
vn 0.77091444 0.6369387 0
vn 0.77091444 0.6369387 0
vn -0.77091396 -0.63693935 0
vn -0.77091396 -0.63693935 0
vn -0.77091396 -0.63693935 0
vn -0.77091396 -0.63693935 0
vn -0.77091444 0.6369387 0
vn -0.77091444 0.6369387 0
vn -0.77091444 0.6369387 0
vn -0.77091444 0.6369387 0
vn -0 1 0
vn -0 1 0
vn -0 1 0
vn -0 1 0
vn 0.6997962 0.57265705 0.42702365
vn 0.6997962 0.57265705 0.42702365
vn 0.6997962 0.57265705 0.42702365
vn 0.6997962 0.57265705 0.42702365
vn -0.71434253 0.56149876 0.41765282
vn -0.71434253 0.56149876 0.41765282
vn -0.71434253 0.56149876 0.41765282
vn -0.71434253 0.56149876 0.41765282
vn -0.69979614 -0.572657 -0.42702383
vn -0.69979614 -0.572657 -0.42702383
vn -0.69979614 -0.572657 -0.42702383
vn -0.69979614 -0.572657 -0.42702383
vn 0.71434236 -0.5614988 -0.41765305
vn 0.71434236 -0.5614988 -0.41765305
vn 0.71434236 -0.5614988 -0.41765305
vn 0.71434236 -0.5614988 -0.41765305
vn 0.000601496 0.5973134 -0.80200773
vn 0.000601496 0.5973134 -0.80200773
vn 0.000601496 0.5973134 -0.80200773
vn 0.000601496 0.5973134 -0.80200773
vn -0.00060148304 -0.5973132 0.80200785
vn -0.00060148304 -0.5973132 0.80200785
vn -0.00060148304 -0.5973132 0.80200785
vn -0.00060148304 -0.5973132 0.80200785
g PokestopFar_0
f 3/3/3 2/2/2 1/1/1
f 4/4/4 2/2/2 3/3/3
f 1/1/1 2/2/2 5/5/5
f 1/1/1 6/6/6 3/3/3
f 6/6/6 7/7/7 3/3/3
f 3/3/3 7/7/7 4/4/4
f 7/7/7 8/8/8 4/4/4
f 4/4/4 8/8/8 9/9/9
f 8/8/8 10/10/10 9/9/9
f 9/9/9 10/10/10 11/11/11
f 10/10/10 12/12/12 11/11/11
f 11/11/11 12/12/12 13/13/13
f 12/12/12 14/14/14 13/13/13
f 13/13/13 14/14/14 15/15/15
f 14/14/14 16/16/16 15/15/15
f 15/15/15 16/16/16 17/17/17
f 16/16/16 18/18/18 17/17/17
f 17/17/17 18/18/18 19/19/19
f 18/18/18 20/20/20 19/19/19
f 19/19/19 20/20/20 21/21/21
f 20/20/20 22/22/22 21/21/21
f 25/25/25 24/24/24 23/23/23
f 26/26/26 24/24/24 25/25/25
f 27/27/27 24/24/24 26/26/26
f 28/28/28 24/24/24 27/27/27
f 29/29/29 24/24/24 28/28/28
f 30/30/30 24/24/24 29/29/29
f 31/31/31 24/24/24 30/30/30
f 32/32/32 24/24/24 31/31/31
f 33/33/33 24/24/24 32/32/32
f 34/34/34 24/24/24 33/33/33
f 35/35/35 24/24/24 34/34/34
f 36/36/36 24/24/24 35/35/35
f 37/37/37 24/24/24 36/36/36
f 31/31/31 38/38/38 32/32/32
f 38/38/38 39/39/39 32/32/32
f 32/32/32 39/39/39 33/33/33
f 39/39/39 40/40/40 33/33/33
f 33/33/33 40/40/40 34/34/34
f 40/40/40 41/41/41 34/34/34
f 34/34/34 41/41/41 35/35/35
f 41/41/41 42/42/42 35/35/35
f 35/35/35 42/42/42 36/36/36
f 42/42/42 43/43/43 36/36/36
f 36/36/36 43/43/43 37/37/37
f 43/43/43 44/44/44 37/37/37
f 37/37/37 44/44/44 45/45/45
f 44/44/44 46/46/46 45/45/45
f 45/45/45 46/46/46 47/47/47
f 47/47/47 48/48/48 45/45/45
f 49/49/49 48/48/48 47/47/47
f 50/50/50 48/48/48 49/49/49
f 46/46/46 51/51/51 47/47/47
f 47/47/47 51/51/51 49/49/49
f 51/51/51 52/52/52 49/49/49
f 49/49/49 52/52/52 50/50/50
f 52/52/52 53/53/53 50/50/50
f 56/56/56 55/55/55 54/54/54
f 57/57/57 6/6/6 1/1/1
f 5/5/5 57/57/57 1/1/1
f 60/60/60 59/59/59 58/58/58
f 61/61/61 60/60/60 58/58/58
f 64/64/64 63/63/63 62/62/62
f 65/65/65 64/64/64 62/62/62
f 68/68/68 67/67/67 66/66/66
f 69/69/69 68/68/68 66/66/66
f 72/72/72 71/71/71 70/70/70
f 73/73/73 72/72/72 70/70/70
f 76/76/76 75/75/75 74/74/74
f 77/77/77 76/76/76 74/74/74
f 80/80/80 79/79/79 78/78/78
f 81/81/81 80/80/80 78/78/78
f 84/84/84 83/83/83 82/82/82
f 85/85/85 84/84/84 82/82/82
f 88/88/88 87/87/87 86/86/86
f 89/89/89 88/88/88 86/86/86
f 92/92/92 91/91/91 90/90/90
f 93/93/93 92/92/92 90/90/90
f 93/93/93 90/90/90 94/94/94
f 95/95/95 93/93/93 94/94/94
f 92/92/92 93/93/93 95/95/95
f 96/96/96 92/92/92 95/95/95
f 90/90/90 91/91/91 97/97/97
f 94/94/94 90/90/90 97/97/97
f 100/100/100 99/99/99 98/98/98
f 101/101/101 100/100/100 98/98/98
f 104/104/104 103/103/103 102/102/102
f 105/105/105 104/104/104 102/102/102
f 108/108/108 107/107/107 106/106/106
f 109/109/109 108/108/108 106/106/106
f 112/112/112 111/111/111 110/110/110
f 113/113/113 112/112/112 110/110/110
f 116/116/116 115/115/115 114/114/114
f 117/117/117 116/116/116 114/114/114
f 120/120/120 119/119/119 118/118/118
f 121/121/121 120/120/120 118/118/118
f 124/124/124 123/123/123 122/122/122
f 125/125/125 124/124/124 122/122/122
f 128/128/128 127/127/127 126/126/126
f 129/129/129 128/128/128 126/126/126
f 132/132/132 131/131/131 130/130/130
f 133/133/133 132/132/132 130/130/130
f 136/136/136 135/135/135 134/134/134
f 137/137/137 136/136/136 134/134/134
f 140/140/140 139/139/139 138/138/138
f 141/141/141 140/140/140 138/138/138
f 144/144/144 143/143/143 142/142/142
f 145/145/145 144/144/144 142/142/142
f 148/148/148 147/147/147 146/146/146
f 149/149/149 148/148/148 146/146/146
f 152/152/152 151/151/151 150/150/150
f 153/153/153 152/152/152 150/150/150
