# Blender 3.3.1
# www.blender.org
mtllib Sunglasses.mtl
o Sunglasses
v -0.004892 0.003729 0.012714
v 0.000000 0.004784 0.012996
v 0.000000 0.004784 0.006281
v -0.004892 0.003729 0.006331
v -0.009270 0.000501 0.012714
v -0.009270 0.000501 0.006006
v -0.018428 -0.013419 0.010884
v -0.017730 -0.013436 0.004714
v -0.032665 -0.024811 0.006666
v -0.031702 -0.024874 0.000604
v -0.048717 -0.030904 0.001644
v -0.048143 -0.031276 -0.004471
v -0.063695 -0.031506 -0.002484
v -0.063430 -0.031886 -0.008636
v -0.076110 -0.027376 -0.004876
v -0.076623 -0.027724 -0.011139
v -0.084295 -0.020696 -0.006029
v -0.085462 -0.020136 -0.012266
v -0.090443 -0.008111 -0.006419
v -0.091265 -0.007241 -0.012811
v -0.091305 0.007284 -0.006694
v -0.091553 0.008036 -0.013131
v -0.086558 0.019511 -0.006676
v -0.086888 0.019401 -0.013169
v -0.077692 0.028489 -0.012134
v -0.077568 0.027934 -0.005546
v -0.064202 0.031636 -0.008621
v -0.065592 0.031631 -0.002824
v -0.050813 0.031631 0.001161
v -0.043585 0.031636 -0.003881
v -0.037517 0.031631 0.003961
v -0.022625 0.031636 -0.000659
v -0.026340 0.031631 0.005841
v 0.000000 0.031881 0.006421
v 0.000000 0.031886 0.000256
v 0.000000 0.031881 0.006421
v 0.000000 0.031886 0.000256
v 0.022625 0.031636 -0.000659
v 0.026340 0.031631 0.005841
v 0.037517 0.031631 0.003961
v 0.043585 0.031636 -0.003881
v 0.050813 0.031631 0.001161
v 0.064202 0.031636 -0.008621
v 0.065593 0.031631 -0.002824
v 0.077567 0.027934 -0.005546
v 0.077693 0.028489 -0.012134
v 0.086558 0.019511 -0.006676
v 0.086888 0.019401 -0.013169
v 0.091553 0.008036 -0.013131
v 0.091305 0.007284 -0.006694
v 0.091265 -0.007241 -0.012811
v 0.090443 -0.008111 -0.006419
v 0.085462 -0.020136 -0.012266
v 0.084295 -0.020696 -0.006029
v 0.076623 -0.027724 -0.011139
v 0.076110 -0.027376 -0.004876
v 0.063430 -0.031886 -0.008636
v 0.063695 -0.031506 -0.002484
v 0.048143 -0.031276 -0.004471
v 0.048717 -0.030904 0.001644
v 0.031702 -0.024874 0.000604
v 0.032665 -0.024811 0.006666
v 0.017730 -0.013436 0.004714
v 0.018428 -0.013419 0.010884
v 0.009270 0.000501 0.006006
v 0.009270 0.000501 0.012714
v 0.004893 0.003729 0.006331
v 0.004893 0.003729 0.012714
v 0.000000 0.004784 0.006281
v 0.000000 0.004784 0.012996
v 0.019235 0.027051 0.007594
v 0.000000 0.027051 0.001734
v 0.000000 0.027051 0.008369
v 0.019235 0.027051 0.001084
v 0.013275 0.017711 0.004024
v 0.013428 0.017736 0.010409
v 0.009735 0.007581 0.005826
v 0.009735 0.007581 0.012544
v 0.005118 0.008771 0.005914
v 0.005118 0.008771 0.012551
v 0.000000 0.009294 0.012484
v 0.000000 0.009294 0.005854
v 0.000000 0.027051 0.001734
v -0.019235 0.027051 0.007594
v 0.000000 0.027051 0.008369
v -0.019235 0.027051 0.001084
v -0.013275 0.017711 0.004024
v -0.013428 0.017736 0.010409
v -0.009735 0.007581 0.005826
v -0.009735 0.007581 0.012544
v -0.005117 0.008771 0.005914
v -0.005117 0.008771 0.012551
v 0.000000 0.009294 0.012484
v 0.000000 0.009294 0.005854
v -0.084295 -0.020696 -0.006029
v -0.081795 -0.001901 -0.000221
v -0.076110 -0.027376 -0.004876
v -0.090443 -0.008111 -0.006419
v -0.091305 0.007284 -0.006694
v -0.065570 -0.006154 0.005689
v -0.063695 -0.031506 -0.002484
v -0.048717 -0.030904 0.001644
v -0.078940 0.015531 -0.003319
v -0.086558 0.019511 -0.006676
v -0.077568 0.027934 -0.005546
v -0.065332 0.014066 0.003779
v -0.065592 0.031631 -0.002824
v -0.050813 0.031631 0.001161
v -0.050005 0.013466 0.008846
v -0.037517 0.031631 0.003961
v -0.049390 -0.006971 0.010389
v -0.032665 -0.024811 0.006666
v -0.033690 -0.003674 0.012861
v -0.018428 -0.013419 0.010884
v -0.035982 0.014479 0.010354
v -0.026340 0.031631 0.005841
v -0.020787 0.000384 0.013169
v -0.009270 0.000501 0.012714
v -0.023272 0.015974 0.011036
v -0.009735 0.007581 0.012544
v -0.004892 0.003729 0.012714
v -0.013428 0.017736 0.010409
v -0.005117 0.008771 0.012551
v -0.019235 0.027051 0.007594
v 0.000000 0.004784 0.012996
v 0.000000 0.009294 0.012484
v 0.005118 0.008771 0.012551
v 0.004893 0.003729 0.012714
v 0.000000 0.031881 0.006421
v 0.000000 0.027051 0.008369
v 0.009735 0.007581 0.012544
v 0.019235 0.027051 0.007594
v 0.009270 0.000501 0.012714
v 0.026340 0.031631 0.005841
v 0.020787 0.000384 0.013169
v 0.018428 -0.013419 0.010884
v 0.023272 0.015974 0.011036
v 0.013428 0.017736 0.010409
v 0.035983 0.014479 0.010354
v 0.037517 0.031631 0.003961
v 0.033690 -0.003674 0.012861
v 0.032665 -0.024811 0.006666
v 0.050005 0.013466 0.008846
v 0.050813 0.031631 0.001161
v 0.049390 -0.006971 0.010389
v 0.048717 -0.030904 0.001644
v 0.065570 -0.006154 0.005689
v 0.063695 -0.031506 -0.002484
v 0.076110 -0.027376 -0.004876
v 0.065332 0.014066 0.003779
v 0.065593 0.031631 -0.002824
v 0.077567 0.027934 -0.005546
v 0.081795 -0.001901 -0.000221
v 0.084295 -0.020696 -0.006029
v 0.090443 -0.008111 -0.006419
v 0.091305 0.007284 -0.006694
v 0.078940 0.015531 -0.003319
v 0.086558 0.019511 -0.006676
vn -0.0000 -1.0000 -0.0000
vn -0.0000 -0.5889 0.8082
vn 0.2447 -0.5923 0.7676
vn 0.4143 -0.9101 -0.0021
vn 0.2448 -0.5923 0.7676
vn 0.4782 -0.4619 0.7470
vn 0.4143 -0.9101 -0.0000
vn 0.7439 -0.6683 -0.0000
vn 0.4783 -0.4618 0.7470
vn 0.4422 -0.5753 0.6881
vn 0.7383 -0.6690 0.0854
vn 0.2298 -0.7412 0.6308
vn 0.4733 -0.8769 0.0842
vn 0.2298 -0.7411 0.6308
vn 0.0076 -0.8173 0.5762
vn 0.4733 -0.8768 0.0842
vn 0.0076 -0.8173 0.5761
vn 0.1625 -0.9838 0.0752
vn 0.4734 -0.8768 0.0842
vn -0.2290 -0.8076 0.5434
vn -0.2290 -0.8076 0.5435
vn -0.1640 -0.9850 0.0538
vn -0.4665 -0.6967 0.5449
vn -0.1639 -0.9850 0.0538
vn -0.4666 -0.6967 0.5449
vn -0.5147 -0.8527 0.0894
vn -0.6661 -0.5225 0.5323
vn -0.8197 -0.5634 0.1029
vn -0.8365 -0.2299 0.4974
vn -0.8198 -0.5634 0.1029
vn -0.9763 -0.1922 0.0995
vn -0.8554 0.1455 0.4970
vn -0.8554 0.1455 0.4971
vn -0.9780 0.1995 0.0609
vn -0.7111 0.4581 0.5333
vn -0.8365 0.5469 0.0333
vn -0.9780 0.1994 0.0609
vn -0.5165 0.8524 0.0816
vn -0.4789 0.6732 0.5634
vn -0.1083 0.9938 -0.0251
vn -0.2497 0.8281 0.5019
vn -0.1337 0.8235 0.5514
vn -0.0002 1.0000 0.0007
vn -0.1337 0.8234 0.5514
vn -0.1098 0.8116 0.5738
vn -0.0002 1.0000 0.0008
vn -0.0069 1.0000 -0.0032
vn -0.0001 1.0000 0.0007
vn -0.0682 0.7921 0.6065
vn -0.0000 0.8262 0.5634
vn -0.0000 1.0000 0.0008
vn -0.0000 0.8261 0.5635
vn 0.0069 1.0000 -0.0032
vn 0.0682 0.7921 0.6065
vn 0.1098 0.8116 0.5738
vn 0.0001 1.0000 0.0007
vn 0.0002 1.0000 0.0008
vn 0.1337 0.8235 0.5514
vn 0.0002 1.0000 0.0007
vn 0.1337 0.8234 0.5514
vn 0.1083 0.9938 -0.0251
vn 0.2497 0.8281 0.5019
vn 0.4789 0.6732 0.5634
vn 0.5165 0.8524 0.0816
vn 0.7111 0.4581 0.5333
vn 0.8365 0.5469 0.0333
vn 0.9780 0.1994 0.0609
vn 0.8554 0.1455 0.4970
vn 0.9780 0.1995 0.0609
vn 0.8554 0.1455 0.4971
vn 0.9763 -0.1922 0.0995
vn 0.8365 -0.2299 0.4974
vn 0.8197 -0.5634 0.1029
vn 0.6661 -0.5225 0.5323
vn 0.8198 -0.5634 0.1029
vn 0.5147 -0.8527 0.0894
vn 0.4665 -0.6967 0.5449
vn 0.4666 -0.6967 0.5449
vn 0.1640 -0.9850 0.0538
vn 0.2290 -0.8076 0.5434
vn 0.1639 -0.9850 0.0538
vn -0.1625 -0.9838 0.0752
vn -0.0076 -0.8173 0.5761
vn -0.4734 -0.8768 0.0842
vn -0.0076 -0.8173 0.5762
vn -0.2298 -0.7411 0.6308
vn -0.4733 -0.8768 0.0842
vn -0.4733 -0.8769 0.0842
vn -0.2298 -0.7412 0.6308
vn -0.7383 -0.6690 0.0854
vn -0.4422 -0.5753 0.6881
vn -0.7439 -0.6683 -0.0000
vn -0.4783 -0.4618 0.7470
vn -0.4782 -0.4619 0.7470
vn -0.4143 -0.9101 -0.0000
vn -0.2447 -0.5923 0.7676
vn -0.0000 -1.0000 0.0021
vn -0.2448 -0.5923 0.7676
vn 0.0001 -0.5498 0.8353
vn -0.2325 0.1486 0.9612
vn -0.7992 -0.6010 -0.0000
vn -0.2326 0.1486 0.9612
vn -0.7992 -0.6010 0.0001
vn -0.8911 0.4534 0.0195
vn -0.2325 0.1488 0.9612
vn -0.8911 0.4533 0.0195
vn -0.6215 0.4502 0.6411
vn -0.6216 0.4502 0.6411
vn -0.5165 0.8563 -0.0000
vn -0.1554 0.4569 0.8758
vn -0.1553 0.4569 0.8758
vn 0.1761 0.9844 -0.0000
vn 0.1247 0.7213 0.6813
vn -0.0000 0.7666 0.6421
vn -0.0000 1.0000 -0.0000
vn -0.0001 -0.5498 0.8353
vn 0.2325 0.1486 0.9612
vn 0.2326 0.1486 0.9612
vn 0.7992 -0.6010 -0.0000
vn 0.8911 0.4534 0.0195
vn 0.7992 -0.6010 0.0001
vn 0.6215 0.4502 0.6411
vn 0.8911 0.4533 0.0195
vn 0.6216 0.4502 0.6411
vn 0.5165 0.8563 -0.0000
vn 0.1554 0.4569 0.8758
vn 0.1553 0.4569 0.8758
vn -0.1761 0.9844 -0.0000
vn -0.1247 0.7213 0.6813
vn -0.4139 0.0024 0.9103
vn -0.3142 -0.1111 0.9428
vn -0.3689 0.2129 0.9048
vn -0.4790 0.6732 0.5634
vn -0.3664 0.2071 0.9071
vn -0.2498 0.8281 0.5019
vn -0.2090 0.2162 0.9537
vn -0.1995 -0.1559 0.9674
vn -0.0636 -0.0880 0.9941
vn -0.1002 0.2313 0.9677
vn -0.0039 -0.0109 0.9999
vn -0.0274 0.2188 0.9754
vn 0.4782 -0.4618 0.7470
vn 0.1554 0.4570 0.8758
vn 0.6216 0.4501 0.6411
vn -0.1248 0.7213 0.6813
vn 0.1248 0.7213 0.6813
vn -0.0000 -0.5497 0.8353
vn -0.1554 0.4570 0.8758
vn -0.4782 -0.4618 0.7470
vn 0.0681 0.7921 0.6065
vn 0.0039 -0.0109 0.9999
vn 0.0274 0.2188 0.9754
vn -0.6216 0.4501 0.6411
vn 0.1002 0.2313 0.9677
vn 0.0636 -0.0880 0.9941
vn 0.2090 0.2162 0.9537
vn 0.1995 -0.1559 0.9674
vn 0.3142 -0.1111 0.9428
vn 0.3664 0.2071 0.9071
vn 0.2498 0.8281 0.5019
vn 0.4139 0.0024 0.9103
vn 0.3689 0.2129 0.9048
vn 0.4790 0.6732 0.5634
vt 1.035156 0.717285
vt 1.013672 0.721191
vt 1.009766 0.692871
vt 1.031250 0.690430
vt 1.057617 0.713867
vt 1.053711 0.685547
vt 1.126953 0.696777
vt 1.121094 0.670898
vt 1.201172 0.670410
vt 1.195312 0.645020
vt 1.272461 0.643066
vt 1.268555 0.617676
vt 1.334961 0.622070
vt 1.332031 0.596191
vt 1.389648 0.609863
vt 1.390625 0.583496
vt 1.434570 0.604980
vt 1.439453 0.578125
vt 1.494141 0.604980
vt 1.500000 0.578125
vt 1.558594 0.608398
vt 1.564453 0.581543
vt 1.614258 0.613770
vt 1.616211 0.586426
vt 1.669922 0.596680
vt 1.666016 0.624512
vt 1.725586 0.620605
vt 1.716797 0.644043
vt 1.776367 0.669922
vt 1.809570 0.652832
vt 1.830078 0.689453
vt 1.895508 0.679199
vt 1.875977 0.704102
vt 1.986328 0.722168
vt 1.990234 0.696777
vt 0.986328 0.722168
vt 0.989746 0.696777
vt 0.895508 0.679199
vt 0.875977 0.704102
vt 0.830078 0.689453
vt 0.809570 0.652832
vt 0.775879 0.669922
vt 0.725586 0.620605
vt 0.716309 0.644043
vt 0.665527 0.624512
vt 0.669922 0.596680
vt 0.614258 0.613770
vt 0.616211 0.586426
vt 0.563965 0.581543
vt 0.559082 0.608398
vt 0.499512 0.578125
vt 0.493896 0.604980
vt 0.439697 0.578125
vt 0.434326 0.604980
vt 0.390137 0.583496
vt 0.389648 0.609863
vt 0.332031 0.596191
vt 0.334717 0.622070
vt 0.268311 0.617676
vt 0.272217 0.643066
vt 0.195557 0.645020
vt 0.201416 0.670410
vt 0.121399 0.670898
vt 0.126465 0.696777
vt 0.053711 0.685547
vt 0.057587 0.713867
vt 0.031006 0.690430
vt 0.034698 0.717285
vt 0.010002 0.692871
vt 0.013901 0.721191
vt 1.525391 0.695312
vt 1.608398 0.678711
vt 1.605469 0.707031
vt 1.527344 0.667480
vt 1.479492 0.675293
vt 1.477539 0.702148
vt 1.433594 0.678223
vt 1.430664 0.707031
vt 1.414062 0.676758
vt 1.411133 0.704590
vt 1.389648 0.702637
vt 1.391602 0.674316
vt 0.608398 0.678711
vt 0.524902 0.695312
vt 0.605957 0.707031
vt 0.527832 0.667480
vt 0.479736 0.675293
vt 0.477539 0.702148
vt 0.433838 0.678223
vt 0.430908 0.707031
vt 0.413818 0.676758
vt 0.410889 0.704590
vt 0.389160 0.702637
vt 0.392090 0.674316
vt 0.121582 0.748047
vt 0.143311 0.829102
vt 0.155518 0.717285
vt 0.098083 0.803711
vt 0.096375 0.870117
vt 0.214966 0.809570
vt 0.209595 0.697266
vt 0.277344 0.697754
vt 0.151123 0.904785
vt 0.116272 0.922363
vt 0.154907 0.958496
vt 0.215698 0.895508
vt 0.207764 0.974609
vt 0.273682 0.974121
vt 0.283203 0.891113
vt 0.333008 0.972168
vt 0.285400 0.804688
vt 0.351074 0.723633
vt 0.352295 0.817383
vt 0.415283 0.773926
vt 0.342529 0.895020
vt 0.382080 0.970215
vt 0.406494 0.833496
vt 0.455078 0.833496
vt 0.396240 0.900391
vt 0.453369 0.863770
vt 0.473633 0.847168
vt 0.437744 0.908203
vt 0.472656 0.868652
vt 0.412598 0.949707
vt 0.494385 0.851562
vt 0.494385 0.871094
vt 0.515625 0.869141
vt 0.515137 0.847656
vt 0.494385 0.971191
vt 0.494385 0.949219
vt 0.535156 0.864258
vt 0.575684 0.949707
vt 0.533691 0.833984
vt 0.606445 0.970215
vt 0.582031 0.833496
vt 0.573242 0.773926
vt 0.592285 0.900391
vt 0.550781 0.908691
vt 0.645996 0.895020
vt 0.655762 0.972656
vt 0.636230 0.817383
vt 0.637695 0.723633
vt 0.705078 0.891113
vt 0.714844 0.974121
vt 0.703125 0.804688
vt 0.711426 0.697754
vt 0.773438 0.809570
vt 0.778809 0.697266
vt 0.833008 0.717285
vt 0.772949 0.895508
vt 0.780762 0.974609
vt 0.833984 0.958496
vt 0.845215 0.829102
vt 0.867188 0.748047
vt 0.890625 0.803711
vt 0.892090 0.870117
vt 0.837402 0.904785
vt 0.872559 0.922363
s 0
usemtl Material.057
f 3/3/1 2/2/2 1/1/3
f 4/4/4 3/3/1 1/1/5
f 1/1/3 5/5/6 4/4/7
f 5/5/6 6/6/8 4/4/7
f 5/5/9 7/7/10 6/6/8
f 7/7/10 8/8/11 6/6/8
f 7/7/10 9/9/12 8/8/11
f 9/9/12 10/10/13 8/8/11
f 9/9/14 11/11/15 10/10/16
f 11/11/17 12/12/18 10/10/19
f 11/11/17 13/13/20 12/12/18
f 13/13/21 14/14/22 12/12/18
f 13/13/20 15/15/23 14/14/24
f 15/15/25 16/16/26 14/14/22
f 15/15/23 17/17/27 16/16/26
f 17/17/27 18/18/28 16/16/26
f 17/17/27 19/19/29 18/18/30
f 19/19/29 20/20/31 18/18/28
f 19/19/29 21/21/32 20/20/31
f 21/21/33 22/22/34 20/20/31
f 21/21/32 23/23/35 22/22/34
f 23/23/35 24/24/36 22/22/37
f 25/25/38 24/24/36 23/23/35
f 26/26/39 25/25/38 23/23/35
f 27/27/40 25/25/38 26/26/39
f 28/28/41 27/27/40 26/26/39
f 27/27/40 28/28/41 29/29/42
f 30/30/43 27/27/40 29/29/44
f 31/31/45 30/30/46 29/29/42
f 32/32/47 30/30/48 31/31/45
f 33/33/49 32/32/47 31/31/45
f 32/32/47 33/33/49 34/34/50
f 35/35/51 32/32/47 34/34/52
f 38/38/53 37/37/51 36/36/52
f 39/39/54 38/38/53 36/36/50
f 38/38/53 39/39/54 40/40/55
f 41/41/56 38/38/53 40/40/55
f 41/41/57 40/40/55 42/42/58
f 41/41/59 42/42/60 43/43/61
f 42/42/58 44/44/62 43/43/61
f 43/43/61 44/44/62 45/45/63
f 46/46/64 43/43/61 45/45/63
f 46/46/64 45/45/63 47/47/65
f 48/48/66 46/46/64 47/47/65
f 48/48/66 47/47/65 49/49/67
f 47/47/65 50/50/68 49/49/69
f 49/49/69 50/50/70 51/51/71
f 50/50/70 52/52/72 51/51/71
f 51/51/71 52/52/72 53/53/73
f 52/52/72 54/54/74 53/53/75
f 53/53/73 54/54/74 55/55/76
f 54/54/74 56/56/77 55/55/76
f 55/55/76 56/56/78 57/57/79
f 56/56/77 58/58/80 57/57/81
f 57/57/79 58/58/80 59/59/82
f 58/58/80 60/60/83 59/59/82
f 59/59/82 60/60/83 61/61/84
f 60/60/85 62/62/86 61/61/87
f 61/61/88 62/62/89 63/63/90
f 62/62/89 64/64/91 63/63/90
f 63/63/90 64/64/91 65/65/92
f 64/64/91 66/66/93 65/65/92
f 65/65/92 66/66/94 67/67/95
f 66/66/94 68/68/96 67/67/95
f 69/69/97 67/67/95 68/68/98
f 70/70/2 69/69/1 68/68/96
f 73/73/99 72/72/1 71/71/100
f 72/72/1 74/74/101 71/71/102
f 74/74/103 75/75/104 71/71/105
f 75/75/106 76/76/107 71/71/102
f 76/76/108 75/75/104 77/77/109
f 78/78/110 76/76/107 77/77/109
f 78/78/111 77/77/109 79/79/112
f 80/80/113 78/78/111 79/79/112
f 80/80/113 79/79/112 81/81/114
f 79/79/112 82/82/115 81/81/114
f 85/85/116 84/84/117 83/83/1
f 84/84/118 86/86/119 83/83/1
f 87/87/120 86/86/121 84/84/118
f 88/88/122 87/87/123 84/84/118
f 87/87/120 88/88/124 89/89/125
f 88/88/122 90/90/126 89/89/125
f 89/89/125 90/90/127 91/91/128
f 90/90/127 92/92/129 91/91/128
f 92/92/129 93/93/114 91/91/128
f 93/93/114 94/94/115 91/91/128
f 97/97/23 96/96/130 95/95/27
f 98/98/29 95/95/27 96/96/130
f 99/99/32 98/98/29 96/96/130
f 100/100/131 96/96/130 97/97/23
f 97/97/23 101/101/20 100/100/131
f 100/100/131 101/101/20 102/102/17
f 99/99/32 96/96/130 103/103/132
f 104/104/35 99/99/32 103/103/132
f 104/104/35 103/103/132 105/105/133
f 103/103/132 96/96/130 106/106/134
f 105/105/133 103/103/132 106/106/134
f 96/96/130 100/100/131 106/106/134
f 107/107/135 105/105/39 106/106/134
f 107/107/41 106/106/134 108/108/44
f 106/106/134 109/109/136 108/108/44
f 106/106/134 100/100/131 109/109/136
f 108/108/42 109/109/136 110/110/45
f 111/111/137 100/100/131 102/102/17
f 100/100/131 111/111/137 109/109/136
f 102/102/17 112/112/14 111/111/137
f 112/112/12 113/113/138 111/111/137
f 111/111/137 113/113/138 109/109/136
f 113/113/138 112/112/12 114/114/10
f 109/109/136 115/115/139 110/110/45
f 113/113/138 115/115/139 109/109/136
f 110/110/45 115/115/139 116/116/49
f 117/117/140 113/113/138 114/114/10
f 115/115/139 113/113/138 117/117/140
f 118/118/6 117/117/140 114/114/10
f 115/115/139 119/119/141 116/116/49
f 119/119/141 115/115/139 117/117/140
f 120/120/126 117/117/140 118/118/142
f 117/117/140 120/120/143 119/119/141
f 120/120/127 118/118/142 121/121/5
f 120/120/126 122/122/124 119/119/141
f 123/123/129 120/120/143 121/121/5
f 122/122/144 124/124/118 119/119/141
f 124/124/118 116/116/49 119/119/141
f 121/121/3 125/125/2 123/123/129
f 125/125/2 126/126/114 123/123/145
f 126/126/114 125/125/2 127/127/146
f 125/125/2 128/128/96 127/127/113
f 116/116/49 124/124/118 129/129/52
f 124/124/118 130/130/147 129/129/50
f 131/131/148 127/127/113 128/128/98
f 130/130/147 132/132/102 129/129/50
f 133/133/149 131/131/111 128/128/98
f 132/132/102 134/134/150 129/129/52
f 135/135/151 131/131/110 133/133/94
f 135/135/151 133/133/94 136/136/91
f 134/134/54 132/132/102 137/137/152
f 135/135/151 137/137/152 131/131/148
f 132/132/102 138/138/153 137/137/152
f 137/137/152 138/138/108 131/131/110
f 137/137/152 139/139/154 134/134/54
f 139/139/154 137/137/152 135/135/151
f 139/139/154 140/140/55 134/134/54
f 141/141/155 135/135/151 136/136/91
f 141/141/155 139/139/154 135/135/151
f 142/142/89 141/141/155 136/136/91
f 139/139/154 143/143/156 140/140/55
f 143/143/156 139/139/154 141/141/155
f 143/143/156 144/144/58 140/140/55
f 145/145/157 141/141/155 142/142/89
f 145/145/157 143/143/156 141/141/155
f 146/146/83 145/145/157 142/142/86
f 145/145/157 146/146/83 147/147/158
f 145/145/157 147/147/158 143/143/156
f 146/146/83 148/148/80 147/147/158
f 148/148/80 149/149/77 147/147/158
f 143/143/156 150/150/159 144/144/60
f 147/147/158 150/150/159 143/143/156
f 150/150/159 151/151/62 144/144/60
f 152/152/63 151/151/160 150/150/159
f 153/153/161 147/147/158 149/149/77
f 147/147/158 153/153/161 150/150/159
f 153/153/161 149/149/77 154/154/74
f 154/154/74 155/155/72 153/153/161
f 155/155/72 156/156/68 153/153/161
f 157/157/162 152/152/163 150/150/159
f 153/153/161 157/157/162 150/150/159
f 157/157/162 153/153/161 156/156/68
f 157/157/162 158/158/65 152/152/163
f 158/158/65 157/157/162 156/156/68
